<?xml version="1.0" encoding="utf-8"?>
<!-- Generator: Adobe Illustrator 21.0.1, SVG Export Plug-In . SVG Version: 6.00 Build 0)  -->
<svg version="1.1" id="Layer_1" xmlns="http://www.w3.org/2000/svg" xmlns:xlink="http://www.w3.org/1999/xlink" x="0px" y="0px"
	 viewBox="0 0 400 400" style="enable-background:new 0 0 400 400;" xml:space="preserve">
<style type="text/css">
	.st0{fill:none;}
	.st1{fill:#CCCAE2;}
	.st2{fill:#9899C6;}
	.st3{fill:#EEC7AA;}
	.st4{fill:#E4B595;}
	.st5{fill:#3E464E;}
	.st6{fill:url(#SVGID_1_);}
	.st7{fill:#606971;}
	.st8{fill:#4C7083;}
	.st9{fill:#353535;}
	.st10{fill:#ECE4D9;}
	.st11{fill:#FAF9F8;}
	.st12{fill:#FFFFFF;}
	.st13{fill:#FFBA00;}
	.st14{fill:url(#SVGID_2_);}
	.st15{fill:#F09400;}
	.st16{fill:#545454;}
	.st17{fill:#404040;}
	.st18{fill:#EEEEEE;}
	.st19{fill:#474747;}
	.st20{fill:#EBEBEB;}
	.st21{fill:#FFDD82;}
	.st22{fill:#FF8B00;}
	.st23{fill:#231F20;}
</style>
<g>
	<path class="st0" d="M20.5,203h0.2c0-1.1,0-2.1,0-3.2c0-0.7,0-1.4,0-2c-0.1,0.2-0.3,0.3-0.6,0.3h0.4V203z"/>
	<path class="st1" d="M300.7,242.6l0.1-0.2c-0.1-0.1-0.1-0.2-0.2-0.3l-17.5,6.5c0.9,2.5,2.3,4.7,4.1,6.6L300.7,242.6z"/>
	<path class="st1" d="M301.4,242.9c-0.1,0-0.1-0.1-0.2-0.1l-8.9,16.4c0.6,0.4,1.3,0.7,2,1L301.4,242.9z"/>
	<path class="st1" d="M303.6,242l5.1,2.3l-0.1-2.6l-4.9-0.2C303.7,241.8,303.7,241.9,303.6,242z"/>
	<path class="st1" d="M291.8,259l8.5-15.6l-12.9,12.1C288.7,256.8,290.2,258,291.8,259z"/>
	<path class="st1" d="M281.8,241.5c0,2.4,0.4,4.7,1.2,6.9l17.5-6.5c0-0.1-0.1-0.2-0.1-0.4l-18.7-0.6
		C281.8,241.1,281.8,241.3,281.8,241.5z"/>
	<path class="st1" d="M303.4,242.4l0.3,0.6l5.1,5.5l-0.2-3.9l-5.2-2.4C303.5,242.3,303.5,242.4,303.4,242.4z"/>
	<path class="st1" d="M302,239.8l0.6-18.7c-0.2,0-0.3,0-0.5,0c-2.3,0-4.5,0.4-6.6,1.1l6.2,17.6C301.8,239.9,301.9,239.8,302,239.8z"
		/>
	<polygon class="st1" points="309.1,252.9 308.9,249 304.3,244 	"/>
	<path class="st1" d="M302.1,261.8c2.3,0,4.5-0.4,6.6-1.1l-6.2-17.6c-0.1,0-0.2,0-0.3,0.1l-0.6,18.7
		C301.8,261.8,301.9,261.8,302.1,261.8z"/>
	<path class="st1" d="M295.2,222.4c-2.6,0.9-4.9,2.4-6.9,4.2l12.8,13.6c0.1-0.1,0.2-0.2,0.3-0.2L295.2,222.4z"/>
	<path class="st1" d="M309.5,262.1l-0.1-1.3c-0.1,0-0.2,0.1-0.3,0.1L309.5,262.1z"/>
	<path class="st1" d="M302.8,243l6.2,17.6c0.2-0.1,0.3-0.1,0.5-0.2l-0.3-6.3l-6.1-11.3C303,242.9,302.9,242.9,302.8,243z"/>
	<path class="st1" d="M20.7,197.8c0,0.7,0,1.4,0,2c0,1.1,0,2.1,0,3.2h1.5l1,2.7h6.8v4.2H48v2.7h2.3v2.1h-1v64.6h8.6v-46h0.8V230h1.6
		v-11.3h0.6V230h1.3v-9.1h0.6v9.1h2.7v3.4h3.4v12h6.4v0.8h-0.8v2.4h4.2v-37.3H78v-1h4.3v-5.8h-0.6v-0.9h4v-3.3h-0.6v-0.7h2v-3.1h1.9
		v-6.2h0.2h0.2h0.2v6.2h0.8v-11.2h0.2h0.2H91v11.2h0.3h1.6v3.1h1.7v0.7h-0.4v3.3h4v0.9h-0.6v5.8h4.3v1h-0.6v48.8h13.2v6.8h4.7v-36.1
		h-2.8v-0.9h2.8v-1.6h3.5v-2.7h17v-30.9h4v-24.7h7.8v-13.5h1.1v13.5h2.4v-10.8h1.1v10.8h12.3v14.7h2.2v10h6.3v37.4h2.4v8.6l3.6-0.9
		v-2h3.1v1.2l5.7-1.4v-2.2h3.1v1.5l5.2-1.3v-10.8h1.4V206h6.7v-7.1h3.6v-6h1.3v-10.3h0.3v10.3h1.3v6h3.6v7.1h6.8v18.7h1.3v58.7h6.3
		v-36.6h-1.5v-0.6h17.5v-7.6h-2v-0.9h-1v-2.4h4.6v-2.6h-0.6V232H260v0.8h-0.6v2.6h13.4c0.5-2.2,1.1-4.3,2.1-6.3l-2.2-1
		c-0.4,0.8-1.2,1.4-2.2,1.4c-1.3,0-2.4-1.1-2.4-2.4s1.1-2.4,2.4-2.4s2.4,1.1,2.4,2.4c0,0.3,0,0.5-0.1,0.8l2.3,1c1.5-3.1,3.5-6,6-8.5
		c0.2-0.2,0.4-0.4,0.6-0.6l-1.8-1.9c-0.4,0.4-1,0.6-1.6,0.6c-1.3,0-2.4-1.1-2.4-2.4c0-1.3,1.1-2.4,2.4-2.4c1.3,0,2.4,1.1,2.4,2.4
		c0,0.6-0.2,1.2-0.6,1.6l1.8,1.9c3-2.8,6.5-4.9,10.3-6.3l-1-2.8c-0.2,0.1-0.4,0.1-0.7,0.1c-1.3,0-2.4-1.1-2.4-2.4s1.1-2.4,2.4-2.4
		s2.4,1.1,2.4,2.4c0,1-0.6,1.9-1.5,2.2l1,2.8c3.1-1.1,6.4-1.6,9.8-1.6c0.3,0,0.6,0,0.8,0l0.1-3.4c-1.2-0.2-2.1-1.2-2.1-2.4
		c0-1.3,1.1-2.4,2.4-2.4c1.3,0,2.4,1.1,2.4,2.4c0,1.3-1.1,2.4-2.4,2.4c0,0-0.1,0-0.1,0l-0.1,3.4c1.4,0,2.7,0.2,4.1,0.4l-1.2-28
		l44.9,9.3v49.1h7.8v-25.3h14v-10.1h0.8v10.1h1.6v-18.6h0.8v18.6h1.8v-13.4h0.8v13.4h2.4v11.4c1.5-9.4,2.3-18.9,2.3-28.7
		c0-100-81.1-181.1-181.1-181.1c-99.1,0-179.7,79.7-181.1,178.5c0.1,0.1,0.1,0.2,0.1,0.3C20.8,197.6,20.8,197.7,20.7,197.8z"/>
	<path class="st1" d="M286.9,255.5c-1.8-1.9-3.2-4.2-4.2-6.8l-7.6,2.8v0.9c1.3,3.2,3.2,6.2,5.6,8.8L286.9,255.5z"/>
	<path class="st1" d="M281.8,240.7l18.7,0.6c0-0.1,0-0.3,0.1-0.4l-17-7.8C282.6,235.4,281.9,238,281.8,240.7z"/>
	<path class="st1" d="M275.2,250.6v0.7l7.5-2.7c-0.8-2.2-1.2-4.6-1.2-7c0-0.2,0-0.4,0-0.5l-6.2-0.2v9h1.2v0.9H275.2z"/>
	<path class="st1" d="M300.9,240.4l-12.8-13.6c-1.8,1.7-3.3,3.8-4.4,6.1l17,7.8C300.8,240.6,300.8,240.5,300.9,240.4z"/>
	<path class="st1" d="M275.2,262.2v1.2c0.4-0.3,0.9-0.5,1.5-0.5c0.6,0,1.2,0.3,1.7,0.7l1.9-1.7c-2.1-2.2-3.7-4.7-5-7.4v6.8h1.2v0.9
		H275.2z"/>
	<path class="st1" d="M288.3,267v-0.4l-0.2,0.3C288.1,267,288.2,267,288.3,267z"/>
	<path class="st1" d="M287.3,268.4h0.9V268c-0.2-0.1-0.4-0.2-0.5-0.3L287.3,268.4z"/>
	<path class="st1" d="M287.1,255.7l-6.1,5.7c0.2,0.2,0.4,0.4,0.6,0.6c1.8,1.8,3.9,3.4,6.1,4.7l0.6-1.2V263h1.4l2-3.7
		C290,258.3,288.4,257.1,287.1,255.7z"/>
	<path class="st1" d="M280.4,262l-1.9,1.7c0.4,0.4,0.6,1,0.6,1.6c0,1.3-1.1,2.4-2.4,2.4c-0.6,0-1.1-0.2-1.5-0.5v5.7h1.2v0.9h-1.2
		v10.7h1.2v0.9h-1.2v3.4h0.5l7-12.9v-5.4h-1v-2h5l0.5-1c-2.3-1.3-4.4-2.9-6.3-4.8C280.8,262.4,280.6,262.2,280.4,262z"/>
	<polygon class="st1" points="282.7,288.7 282.7,276.9 276.3,288.7 	"/>
	<path class="st1" d="M302.1,262.2c-0.2,0-0.4,0-0.5,0l-0.2,6.2h1.3V263h6.9l-0.7-1.9C306.7,261.8,304.5,262.2,302.1,262.2z"/>
	<path class="st1" d="M301.6,243l-7.1,17.3c2.1,0.9,4.4,1.4,6.8,1.5l0.6-18.7C301.8,243.1,301.7,243.1,301.6,243z"/>
	<path class="st1" d="M291.4,267.9v0.5h2.9V263h2.9v5.4h4l0.2-6.2c-2.4-0.1-4.8-0.6-6.9-1.5L291.4,267.9z"/>
	<path class="st1" d="M291.4,267.2l2.7-6.7c-0.7-0.3-1.4-0.6-2-1l-1.8,3.4h1.1V267.2z"/>
	<path class="st1" d="M302.3,239.8c0.1,0,0.2,0,0.3,0.1l5.4-13l-0.2-4.9c-1.5-0.4-3.2-0.7-4.8-0.8L302.3,239.8z"/>
	<path class="st1" d="M303.7,241.4l4.9,0.2l-0.1-2.3l-4.8,1.8C303.7,241.1,303.7,241.3,303.7,241.4z"/>
	<path class="st1" d="M307.7,221.5l-0.4-8.7c-1.4-0.2-2.7-0.4-4.1-0.5l-0.3,8.4C304.6,220.8,306.2,221.1,307.7,221.5z"/>
	<path class="st1" d="M303.2,240.3l5.1-4.8l-0.4-7.9l-5.1,12.5C303,240.1,303.1,240.2,303.2,240.3z"/>
	<path class="st1" d="M303.6,240.8l4.9-1.8l-0.1-3.2l-5,4.7C303.5,240.6,303.5,240.7,303.6,240.8z"/>
	<path class="st1" d="M295.1,222l-2.8-7.9c-3.7,1.3-7.1,3.4-10,6.1l5.7,6.1C290.1,224.4,292.5,222.9,295.1,222z"/>
	<path class="st1" d="M287.9,226.5l-5.7-6.1c-0.2,0.2-0.4,0.4-0.6,0.6c-2.4,2.4-4.4,5.2-5.8,8.2l7.6,3.5
		C284.5,230.3,286,228.2,287.9,226.5z"/>
	<path class="st1" d="M278.2,237.7h-1v0.9h-2v1.8l6.2,0.2c0.1-2.8,0.8-5.4,1.8-7.7l-7.6-3.5c-0.9,1.9-1.5,3.9-2,6h4.5V237.7z"/>
	<path class="st1" d="M302.1,220.8c0.2,0,0.4,0,0.5,0l0.3-8.4c-0.3,0-0.5,0-0.8,0c-3.3,0-6.5,0.5-9.5,1.6l2.8,7.9
		C297.5,221.2,299.7,220.8,302.1,220.8z"/>
	<path class="st2" d="M20.7,197.8c0-0.2,0-0.4,0-0.7c-0.1-0.2-0.3-0.4-0.6-0.4c-0.4,0-0.7,0.3-0.7,0.7c0,0.4,0.3,0.7,0.7,0.7
		C20.4,198.1,20.6,198,20.7,197.8z"/>
	<path class="st2" d="M20.8,197.5c0-0.1,0-0.2-0.1-0.3c0,0.2,0,0.4,0,0.7C20.8,197.7,20.8,197.6,20.8,197.5z"/>
	<path class="st2" d="M380.7,217.1h-2.4v-13.4h-0.8v13.4h-1.8v-18.6H375v18.6h-1.6v-10.1h-0.8v10.1h-14v25.3h-7.8v-49.1L306,184
		l1.2,28c-1.3-0.2-2.7-0.4-4.1-0.4l0.1-3.4c0,0,0.1,0,0.1,0c1.3,0,2.4-1.1,2.4-2.4c0-1.3-1.1-2.4-2.4-2.4c-1.3,0-2.4,1.1-2.4,2.4
		c0,1.2,0.9,2.2,2.1,2.4l-0.1,3.4c-0.3,0-0.6,0-0.8,0c-3.4,0-6.7,0.6-9.8,1.6l-1-2.8c0.9-0.4,1.5-1.2,1.5-2.2c0-1.3-1.1-2.4-2.4-2.4
		s-2.4,1.1-2.4,2.4s1.1,2.4,2.4,2.4c0.2,0,0.5,0,0.7-0.1l1,2.8c-3.8,1.3-7.3,3.5-10.3,6.3l-1.8-1.9c0.4-0.4,0.6-1,0.6-1.6
		c0-1.3-1.1-2.4-2.4-2.4c-1.3,0-2.4,1.1-2.4,2.4c0,1.3,1.1,2.4,2.4,2.4c0.6,0,1.2-0.2,1.6-0.6l1.8,1.9c-0.2,0.2-0.4,0.4-0.6,0.6
		c-2.5,2.5-4.5,5.4-6,8.5l-2.3-1c0.1-0.2,0.1-0.5,0.1-0.8c0-1.3-1.1-2.4-2.4-2.4s-2.4,1.1-2.4,2.4s1.1,2.4,2.4,2.4
		c1,0,1.8-0.6,2.2-1.4l2.2,1c-0.9,2-1.6,4.1-2.1,6.3h-13.4v-2.6h0.6V232h-10.2v0.8h0.6v2.6h-4.6v2.4h1v0.9h2v7.6h-17.5v0.6h1.5v36.6
		h-6.3v-58.7h-1.3V206h-6.8v-7.1h-3.6v-6h-1.3v-10.3h-0.3v10.3h-1.3v6h-3.6v7.1h-6.7v18.7H200v10.8l-5.2,1.3v-1.5h-3.1v2.2L186,239
		v-1.2h-3.1v2l-3.6,0.9v-8.6h-2.4v-37.4h-6.3v-10h-2.2v-14.7h-12.3v-10.8H155v10.8h-2.4v-13.5h-1.1v13.5h-7.8v24.7h-4v30.9h-17v2.7
		h-3.5v1.6h-2.8v0.9h2.8v36.1h-4.7v-6.8h-13.2v-48.8h0.6v-1h-4.3v-5.8h0.6v-0.9h-4v-3.3h0.4v-0.7h-1.7v-3.1h-1.6H91v-11.2h-0.2h-0.2
		h-0.2v11.2h-0.8v-6.2h-0.2h-0.2h-0.2v6.2h-1.9v3.1h-2v0.7h0.6v3.3h-4v0.9h0.6v5.8H78v1h0.6v37.3h-4.2v-2.4h0.8v-0.8h-6.4v-12h-3.4
		V230h-2.7v-9.1h-0.6v9.1h-1.3v-11.3h-0.6V230h-1.6v3.4h-0.8v46h-8.6v-64.6h1v-2.1H48v-2.7H30.1v-4.2h-6.8l-1-2.7h-1.5
		c0.8,46,18.8,87.9,47.8,119.4h8.1h5.7h6.8h27.3h6.3h10.6h3.8h16.8h4.5h15.7h1.5h1.5h5.7h3.1h5.7h2.6h0.5h5.7h3.1h4.9h0.8h1.5h1.5
		h4.2h21.3h3h1.4h6.4H260h10.3h4.8h7.5h18.7h19.7h0.2h13.9c23.5-25.6,39.8-58,45.5-93.9V217.1z M309.5,262.1l-0.4-1.1
		c0.1,0,0.2-0.1,0.3-0.1L309.5,262.1z M309.4,260.4c-0.2,0.1-0.3,0.1-0.5,0.2l-6.2-17.6c0.1,0,0.2-0.1,0.3-0.1l6.1,11.3L309.4,260.4
		z M275.2,261.3v-6.8c1.3,2.7,3,5.1,5,7.4l-1.9,1.7c-0.4-0.4-1-0.7-1.7-0.7c-0.6,0-1.1,0.2-1.5,0.5v-1.2h1.2v-0.9H275.2z
		 M275.2,252.5v-0.9l7.6-2.8c1,2.5,2.4,4.8,4.2,6.8l-6.1,5.7C278.4,258.7,276.5,255.7,275.2,252.5z M275.2,249.7v-9l6.2,0.2
		c0,0.2,0,0.4,0,0.5c0,2.5,0.4,4.8,1.2,7l-7.5,2.7v-0.7h1.2v-0.9H275.2z M300.6,240.9c0,0.1-0.1,0.2-0.1,0.4l-18.7-0.6
		c0.1-2.7,0.7-5.3,1.8-7.6L300.6,240.9z M283.7,232.8c1.1-2.3,2.6-4.4,4.4-6.1l12.8,13.6c-0.1,0.1-0.2,0.2-0.2,0.3L283.7,232.8z
		 M300.5,241.6c0,0.1,0,0.2,0.1,0.4l-17.5,6.5c-0.8-2.2-1.2-4.5-1.2-6.9c0-0.2,0-0.4,0-0.5L300.5,241.6z M283.1,248.6l17.5-6.5
		c0,0.1,0.1,0.2,0.2,0.3l-0.1,0.2l-13.5,12.6C285.4,253.3,284,251.1,283.1,248.6z M300.3,243.4l-8.5,15.6c-1.6-1-3.1-2.2-4.4-3.5
		L300.3,243.4z M301.2,242.8c0.1,0,0.1,0.1,0.2,0.1l-7.1,17.3c-0.7-0.3-1.3-0.6-2-1L301.2,242.8z M301.1,240.2l-12.8-13.6
		c2-1.8,4.3-3.3,6.9-4.2l6.2,17.6C301.3,240,301.2,240.1,301.1,240.2z M295.5,222.3c2.1-0.7,4.3-1.1,6.6-1.1c0.2,0,0.4,0,0.5,0
		l-0.6,18.7c-0.1,0-0.2,0-0.3,0.1L295.5,222.3z M302.2,243.1c0.1,0,0.2,0,0.3-0.1l6.2,17.6c-2.1,0.7-4.3,1.1-6.6,1.1
		c-0.2,0-0.4,0-0.5,0L302.2,243.1z M309.1,252.9l-4.8-8.9l4.7,5L309.1,252.9z M308.9,248.5l-5.1-5.5l-0.3-0.6c0,0,0.1-0.1,0.1-0.2
		l5.2,2.4L308.9,248.5z M308.7,244.4l-5.1-2.3c0-0.1,0.1-0.2,0.1-0.4l4.9,0.2L308.7,244.4z M308.6,241.5l-4.9-0.2
		c0-0.1,0-0.2-0.1-0.4l4.8-1.8L308.6,241.5z M308.5,239l-4.9,1.8c-0.1-0.1-0.1-0.2-0.2-0.3l5-4.7L308.5,239z M308.3,235.5l-5.1,4.8
		c-0.1-0.1-0.2-0.2-0.4-0.2l5.1-12.5L308.3,235.5z M308,226.9l-5.4,13c-0.1,0-0.2-0.1-0.3-0.1l0.6-18.7c1.7,0.1,3.3,0.3,4.8,0.8
		L308,226.9z M303.2,212.4c1.4,0.1,2.8,0.2,4.1,0.5l0.4,8.7c-1.5-0.4-3.1-0.7-4.8-0.8L303.2,212.4z M302.1,212.4c0.3,0,0.5,0,0.8,0
		l-0.3,8.4c-0.2,0-0.4,0-0.5,0c-2.4,0-4.6,0.4-6.8,1.1l-2.8-7.9C295.6,212.9,298.8,212.4,302.1,212.4z M292.3,214.1l2.8,7.9
		c-2.6,1-5,2.4-7,4.3l-5.7-6.1C285.2,217.4,288.6,215.4,292.3,214.1z M281.5,220.9c0.2-0.2,0.4-0.4,0.6-0.6l5.7,6.1
		c-1.9,1.8-3.4,3.9-4.5,6.2l-7.6-3.5C277.2,226.1,279.1,223.3,281.5,220.9z M273.7,235.4c0.4-2.1,1.1-4.1,2-6l7.6,3.5
		c-1.1,2.4-1.7,5-1.8,7.7l-6.2-0.2v-1.8h2v-0.9h1v-2.4H273.7z M282.7,288.7h-6.4l6.4-11.8V288.7z M286.7,268.4h-5v2h1v5.4l-7,12.9
		h-0.5v-3.4h1.2v-0.9h-1.2v-10.7h1.2v-0.9h-1.2v-5.7c0.4,0.3,0.9,0.5,1.5,0.5c1.3,0,2.4-1.1,2.4-2.4c0-0.6-0.2-1.1-0.6-1.6l1.9-1.7
		c0.2,0.2,0.4,0.4,0.6,0.6c1.9,1.9,4,3.5,6.3,4.8L286.7,268.4z M288.3,268.4h-0.9l0.4-0.7c0.2,0.1,0.4,0.2,0.5,0.3V268.4z
		 M288.3,267c-0.1,0-0.1-0.1-0.2-0.1l0.2-0.3V267z M288.3,263v2.5l-0.6,1.2c-2.2-1.3-4.2-2.8-6.1-4.7c-0.2-0.2-0.4-0.4-0.6-0.6
		l6.1-5.7c1.3,1.4,2.9,2.6,4.5,3.6l-2,3.7H288.3z M292.1,259.6c0.7,0.4,1.3,0.7,2,1l-2.7,6.7V263h-1.1L292.1,259.6z M301.1,268.4h-4
		V263h-2.9v5.4h-2.9v-0.5l3-7.3c2.2,0.9,4.5,1.4,6.9,1.5L301.1,268.4z M301.3,261.8c-2.4-0.1-4.7-0.6-6.8-1.5l7.1-17.3
		c0.1,0,0.2,0.1,0.3,0.1L301.3,261.8z M302.6,263v5.4h-1.3l0.2-6.2c0.2,0,0.4,0,0.5,0c2.4,0,4.6-0.4,6.8-1.1l0.7,1.9H302.6z"/>
</g>
<g>
	<path class="st3" d="M166.2,210.4l-0.1-0.2c-3.7-5.7-1.2-13.7,5.5-18l79.7-51.5c6.7-4.3,15-3.2,18.7,2.4l0.1,0.2
		c3.7,5.7,1.2,13.7-5.5,18l-79.7,51.5C178.2,217.2,169.8,216.1,166.2,210.4z"/>
	<path class="st4" d="M234.5,212.9l-0.2-0.2c-4.7-4.7-4.7-12.2-0.1-16.8l12.9-12.6c4.6-4.6,12.2-4.6,16.8,0.1l0.2,0.2
		c4.7,4.7,4.7,12.2,0.1,16.8L251.3,213C246.7,217.6,239.2,217.5,234.5,212.9z"/>
	<polygon class="st3" points="152.7,371.3 89,330.7 137.7,258.2 201.4,298.8 	"/>
	<path class="st4" d="M233,238.2l-0.2-0.2c-4.3-5.2-3.7-12.8,1.4-17.1l14.2-11.6c5.1-4.2,12.7-3.4,17,1.8l0.2,0.2
		c4.3,5.2,3.7,12.8-1.4,17.1L250,240C244.9,244.2,237.3,243.4,233,238.2z"/>
	<path class="st4" d="M236.4,257.6l-0.1-0.2c-2.8-5.2-1-11.6,4.1-14.3l14-7.5c5.1-2.7,11.4-0.8,14.2,4.4l0.1,0.2
		c2.8,5.2,1,11.6-4.1,14.3l-14,7.5C245.6,264.7,239.2,262.7,236.4,257.6z"/>
	<path class="st3" d="M158.8,296.9l-0.9-0.6c-11.2-7.1-19-13.9-25.8-18.8c-10.4-7.4-14.4-21.6-6.2-44.6l45.3-48.9
		c21.7-19.3,27.9-11.3,49.8,8.4l4.8,3.9c22.9,17.8,24.3,39.6,25.6,47.4c0.9,5.3,1.2,12.1,1.2,12.1c0,3.9-0.5,14.2-7.2,19.6
		c-17.6,14-29.1,36-44.3,39.2C189.8,317.1,176.3,308.1,158.8,296.9z"/>
	<path class="st5" d="M238.6,94.4h-68.8c-8.3,0-15,6.7-15,15v179.2c0,8.3,6.7,15,15,15h68.8c8.3,0,15-6.7,15-15V109.4
		C253.6,101.2,246.9,94.4,238.6,94.4z"/>
	<linearGradient id="SVGID_1_" gradientUnits="userSpaceOnUse" x1="204.0595" y1="87.1334" x2="204.0595" y2="311.8398">
		<stop  offset="0" style="stop-color:#7C76B0"/>
		<stop  offset="0.5" style="stop-color:#6460A3"/>
		<stop  offset="1" style="stop-color:#48418F"/>
	</linearGradient>
	<rect x="161" y="123" class="st6" width="86.2" height="153"/>
	<path class="st7" d="M210.6,108.9h-13.1c-1.2,0-2.1,0.9-2.1,2.1c0,1.2,0.9,2.1,2.1,2.1h13.1c1.2,0,2.1-0.9,2.1-2.1
		C212.7,109.8,211.8,108.9,210.6,108.9z"/>
	<path class="st7" d="M212.4,287h-16.7c-1.5,0-2.7,1.4-2.7,3.1c0,1.7,1.2,3.1,2.7,3.1h16.7c1.5,0,2.7-1.4,2.7-3.1
		C215.1,288.4,213.9,287,212.4,287z"/>
	
		<ellipse transform="matrix(0.5436 -0.8393 0.8393 0.5436 -206.4476 231.0145)" class="st8" cx="109.2" cy="305.3" rx="3.6" ry="3.6"/>
	<g>
		<path class="st9" d="M321.3,322.4h-0.2h-19.7h-18.7h-7.5h-4.8H260h-11.3h-6.4h-1.4h-3h-21.3h-4.2h-1.5h-1.5h-0.8h-4.9h-3.1h-5.7
			h-0.5h-2.6H186h-3.1h-5.7h-1.5h-1.5h-15.7h-4.5h-16.8h-3.8h-10.6h-2.3l54.5,35.3c0.9,0.6,1.1,1.7,0.5,2.6l-10.9,16.8
			c12,2.5,24.5,3.8,37.3,3.8c52.8,0,100.2-22.6,133.3-58.5H321.3z"/>
		<path class="st9" d="M82.3,322.4h-5.7h-8.1c2.7,3,5.6,5.8,8.5,8.6l5.6-8.6H82.3z"/>
		<path class="st8" d="M116.4,322.4h4l-25.1-16.3c-0.9-0.6-2-0.3-2.5,0.6l-10.2,15.7h6.5H116.4z"/>
		<path class="st8" d="M174.9,357.8l-54.5-35.3h-4H89.1h-6.5l-5.6,8.6c23.9,22.8,54,39,87.6,46.1l10.9-16.8
			C176,359.4,175.8,358.3,174.9,357.8z"/>
	</g>
	<path class="st4" d="M135.9,261.6l-0.8,0c-6.9-0.7-11.1-7.2-10.3-13.7l9.4-69.8c1.9-10.3,7.6-10.6,14.5-9.9l0.3,0
		c7.8,1.6,9,10.8,9,19.7c0,0.9-0.1,1.7-0.2,2.5l-7.4,58.7C149.6,255.6,142.8,262.3,135.9,261.6z"/>
	<path class="st3" d="M132.7,262.4l-0.3,0c-6.9-0.9-11.6-7-10.5-13.6c0,0,12.7-60.8,11.8-71.5c-0.8-9.9,8-10.8,14.9-9.9l0.3,0
		c8.1,1.9,10.1,14.7,8.8,22L147.2,252C146.1,258.6,139.6,263.2,132.7,262.4z"/>
	<path class="st10" d="M140.5,167.5c-1-0.1-2,0.1-2.9,0.5c-1.5,0.7-3.5,2.3-3.8,5.3c-0.5,5-1.2,12.8-0.6,13.6
		c0.6,0.8,3.1,1.7,6.2,0.6c3.1-1.1,3.7-1.7,4.5-4.1c0.8-2.5,0.4-11.7,0.2-12.6C143.9,170,143.5,167.7,140.5,167.5z"/>
	<path class="st3" d="M230.6,201.9l-0.1-0.2c-2.4-5.9,0.2-12.6,5.9-15l15.8-6.5c5.7-2.4,12.3,0.4,14.7,6.3l0.1,0.2
		c2.4,5.9-0.2,12.6-5.9,15l-15.8,6.5C239.6,210.6,233,207.8,230.6,201.9z"/>
	<path class="st10" d="M247.7,194.8l-0.1-0.1c-1.6-4.1-4.3-6.8-9-4.8l-4.1,1.7c-4.8,2-5.4,6.1-3.8,10.1l0.1,0.1
		c1.6,4.1,4.8,6.6,9.6,4.6l4.1-1.7C249.3,202.7,249.3,198.8,247.7,194.8z"/>
	<path class="st3" d="M230.3,229.5l-0.1-0.2c-2.5-5.9,0.2-12.7,6-15.1l16-6.6c5.8-2.4,12.5,0.4,14.9,6.3l0.1,0.2
		c2.5,5.9-0.2,12.7-6,15.1l-16,6.6C239.5,238.2,232.8,235.4,230.3,229.5z"/>
	<path class="st10" d="M247.1,222.4l-0.1-0.1c-1.6-4-4.2-6.6-8.9-4.7l-4.1,1.7c-4.7,1.9-5.3,5.9-3.7,9.9l0.1,0.1
		c1.6,4,4.8,6.4,9.5,4.5l4.1-1.7C248.7,230.1,248.7,226.3,247.1,222.4z"/>
	<path class="st3" d="M231.7,256l-0.1-0.2c-2.3-5.4,0.6-11.8,6.4-14.2l16.2-6.6c5.8-2.4,12.5,0,14.8,5.5l0.1,0.2
		c2.3,5.4-0.6,11.8-6.4,14.2l-16.2,6.6C240.6,263.9,234,261.5,231.7,256z"/>
	<path class="st10" d="M247.2,249.8l-0.1-0.1c-1.4-3.5-3.8-5.9-8.1-4.2l-3.7,1.5c-4.3,1.7-4.8,5.3-3.4,8.8l0.1,0.1
		c1.4,3.5,4.3,5.7,8.6,4l3.7-1.5C248.7,256.7,248.7,253.3,247.2,249.8z"/>
	<path class="st11" d="M169.3,359.8l-73.8-47.8c-0.5-0.3-0.6-0.9-0.3-1.4l11.2-17.3c0.3-0.5,0.9-0.6,1.4-0.3l73.8,47.8
		c0.5,0.3,0.6,0.9,0.3,1.4l-11.2,17.3C170.3,360,169.7,360.1,169.3,359.8z"/>
</g>
<g>
	<g>
		<path class="st12" d="M175.5,162.5h3.2v2.2c-1,0.8-1.8,1-2.8,1c-3.1,0-4.3-2.1-4.3-4.1c0-2.6,1.6-4.6,4.3-4.6
			c1.1,0,2.3,0.4,3.2,1.2l1.5-1.5c-1.3-1.3-2.9-1.9-4.6-1.9c-4.4,0-6.6,3.2-6.6,6.7c0,3.3,1.9,6.3,6.6,6.3c2.2,0,3.7-0.8,4.9-2.2
			v-5.2h-5.3V162.5z"/>
	</g>
	<g>
		<path class="st12" d="M193,159.2c0-2.1-1.5-4.1-4.5-4.1c-2,0-3.9,0-5.9,0v12.4h2.3v-4.1h2.3l3.6,4.1h2.8v-0.2l-3.8-4.2
			C192.2,162.7,193,160.9,193,159.2z M184.9,161.3v-4h3.6c1.5,0,2.1,1,2.1,2s-0.6,2-2.1,2H184.9z"/>
	</g>
	<g>
		<path class="st12" d="M205.8,159.3v-4.2h-2.3v7.1c0,2.1-1.1,3.4-3,3.4s-3.2-1.2-3.2-3.4v-7.1h-2.3v7.1c0,3.7,2.5,5.5,5.5,5.5
			c0.6,0,1.1-0.1,1.6-0.2l3.4-7.5L205.8,159.3z"/>
	</g>
	<g>
		<g>
			<circle class="st12" cx="215.7" cy="149.5" r="0.5"/>
		</g>
		<g>
			<path class="st12" d="M234.5,164H231v3.7h-2.3v-12.4c1.9,0,3.9,0,5.8,0C240.6,155.3,240.6,164,234.5,164z M231,161.9h3.5
				c3,0,3-4.4,0-4.4H231V161.9z"/>
		</g>
		<g>
			<g>
				<path class="st12" d="M220.1,151.8c-0.2-0.2-0.5-0.2-0.7,0c-0.2,0.2-0.2,0.5,0,0.7c0.3,0.3,0.3,0.6,0.2,0.9
					c0,0.1-0.1,0.2-0.2,0.3c-0.1,0.1-0.1,0.1-0.2,0.1c0.1,0.1,0.3,0.2,0.6,0.3c0.1,0,0.3,0.1,0.4,0.1c0.1-0.1,0.2-0.2,0.2-0.4
					C220.7,153,220.6,152.3,220.1,151.8z"/>
			</g>
			<g>
				<path class="st12" d="M224.4,154.3c-1.3-0.3-2.4-0.5-3.7-0.8l-0.1,0.2c0.2,0.1,0.2,0.2,0.1,0.3c0,0.1-0.3,0.2-0.6,0.2
					c-0.1,0-0.3,0-0.4-0.1c-0.2-0.1-0.5-0.2-0.6-0.3c-0.1-0.1-0.2-0.2-0.2-0.3c0-0.1,0.1-0.2,0.4-0.2l0-0.1
					c-0.3-0.1-0.5-0.1-0.8-0.2l-2.8,12.1l2.3,0.5l0.8-3.6l3.4,0.8C228.3,164.2,230.3,155.7,224.4,154.3z M222.9,160.8l-3.4-0.8
					l1-4.3l3.4,0.8C226.8,157.2,225.8,161.5,222.9,160.8z"/>
			</g>
		</g>
		<g>
			<g>
				<path class="st12" d="M218.3,152.2v-2.4l0.7-0.7c0.7-0.7,0.6-1.7-0.1-2.3c-0.6-0.5-1.5-0.4-2,0.1l-8.2,8.2l-0.3,0.3l-5.6,12.4
					h2.5l1.1-2.3h6.5l1,2.3h2.6l-5-11.1l5.9-5.9v1.3c-0.5,0.7-0.5,1.7,0.1,2.3c0.2,0.2,0.3,0.2,0.5,0.3l0.2-0.9c0,0,0,0-0.1-0.1
					c-0.3-0.3-0.3-0.9,0-1.2C218.3,152.4,218.3,152.3,218.3,152.2z M212,163.2h-4.6l2.3-5.2h0L212,163.2z M217.9,148.6
					c-0.3,0-0.6-0.3-0.6-0.6s0.3-0.6,0.6-0.6c0.3,0,0.6,0.3,0.6,0.6S218.2,148.6,217.9,148.6z"/>
			</g>
		</g>
	</g>
</g>
<polygon class="st3" points="112.7,296.4 177.5,338.3 190.5,315.1 "/>
<g>
	<path class="st13" d="M243.2,320.3c0,0-9.7,1.2-12.8,2.1c-3.1,0.9-7.9,2.3-8.5,8.2c0,0-0.9,0.5-0.9,1.4c0,0.8,0.1,3.7,1,5.8h78.4
		l4-3.7c0,0,0.4-0.8,0.4-1.5c0-0.7-0.1-2.7-0.2-2.9c-0.1-0.2-0.8-0.9-1.8-1.5c0,0,0.3-2-0.2-3.9c-0.5-1.9-1.2-4-3-4H243.2z"/>
	<linearGradient id="SVGID_2_" gradientUnits="userSpaceOnUse" x1="262.8086" y1="325.0167" x2="262.8086" y2="337.1204">
		<stop  offset="0" style="stop-color:#FFD42B"/>
		<stop  offset="1" style="stop-color:#FFBA00"/>
	</linearGradient>
	<path class="st14" d="M223,327c-0.6,1-1,2.1-1.1,3.6c0,0-0.9,0.5-0.9,1.4c0,0.8,0.1,3.7,1,5.8h78.4l4-3.7c0,0,0.4-0.8,0.4-1.5
		c0-0.7-0.1-2.7-0.2-2.9c-0.1-0.2-0.8-0.9-1.8-1.5c0,0,0.1-0.5,0.1-1.2H223z"/>
	<g>
		<path class="st15" d="M223.1,326.9c0,0.1-0.1,0.1-0.1,0.2h4.6c0.4,0,1.9-0.5,3-1c1.2-0.6,8.7-3.1,10.7-3.6c1.6-0.4,3-1.4,3.7-2.2
			h-0.3c-0.7,0.8-2,1.6-3.4,2c-2.1,0.5-9.6,3.1-10.8,3.6c-1.2,0.6-2.6,1-2.9,1H223.1z"/>
		<path class="st15" d="M275.4,337.8c0.5-1.8,1.7-6.7,1.6-10.1c0-3.9-0.4-6.1-2.3-7.4h-0.4c2.1,1.2,2.5,3.4,2.5,7.4
			c0,3.4-1.2,8.4-1.6,10.1H275.4z"/>
		<path class="st15" d="M246.2,324c0.3-2.1,2.3-3.2,3.5-3.7h-0.6c-1.3,0.6-2.9,1.7-3.2,3.7c-0.3,1.9-1.1,8.3,0.2,13.8h0.2
			C245.1,332.4,245.9,325.9,246.2,324z"/>
	</g>
	<path class="st16" d="M303.5,333.6c-0.3,0-1,0-1.6-1l0,0c-1.6-2.8-4.6-4.7-8.1-4.7c-4.7,0-8.6,3.4-9.3,7.9l0,0
		c-0.2,0.8-0.9,1.9-1.7,1.9s-37.2,0-38.9,0c-1.7,0-1.9-1.9-1.9-1.9l0,0c-0.7-4.5-4.6-8-9.3-8c-5.2,0-9.4,4.2-9.4,9.4
		c0,0.1,0,0.2,0,0.3c-0.4,0-0.8,0-0.9,0c-0.3,0-0.8-0.3-0.8-0.3s0,1.1,0,1.5s1.2,1.5,2.3,1.5h0.3h16.5h0.9H285h1.6h12.1
		c0,0,2.2-0.5,3.6-1.5v0c0,0,1.3-0.9,1.6-1.4c0.2-0.5,0.5-1.4,0.5-1.8c0-0.4,0.1-2.1,0.1-2.1S303.9,333.6,303.5,333.6z"/>
	<g>
		<circle class="st17" cx="232.8" cy="337.3" r="7.2"/>
		<circle class="st18" cx="232.8" cy="337.3" r="4.9"/>
		<circle class="st17" cx="293.8" cy="337.3" r="7.2"/>
		<circle class="st18" cx="293.8" cy="337.3" r="4.9"/>
	</g>
	<path class="st12" d="M226.6,327.4c-0.9,1.6-2.4,2.8-3.3,2.8c-1,0-1-1.3-0.2-2.8c0.9-1.6,2.4-2.8,3.3-2.8
		C227.4,324.6,227.5,325.9,226.6,327.4z"/>
	<path class="st16" d="M243.2,320.3c0,0,0,1.3,1.3,1.3s55-1.3,55-1.3s-0.1-0.5-0.6-1.1s-4.9-7.5-5.9-7.8c-1-0.2-15.5-0.7-19.3-0.7
		c-3.7,0-18.4,0.5-19.4,0.8S246.7,316.5,243.2,320.3z"/>
	<g>
		<path class="st19" d="M276.9,320.8l-1.3-9.8l-1.7,0.2l-1,9.6C274.2,320.9,275.6,320.9,276.9,320.8z"/>
		<path class="st19" d="M249.9,321.5c1.5-2.1,5.7-8.1,8.4-10l-3.1,0.3c0,0-5.8,5.8-9.2,9.8C247,321.5,248.3,321.5,249.9,321.5z"/>
		<path class="st19" d="M298.9,319.2c-0.5-0.7-4.9-7.5-5.9-7.8c-0.3-0.1-1.7-0.1-3.6-0.2l-0.8,0.1l5.6,9.2c3.3-0.1,5.3-0.1,5.3-0.1
			S299.4,319.8,298.9,319.2z"/>
	</g>
	<path class="st20" d="M253,312.2c0,0,1-1.3,3.9-1.5s15.1-0.9,23.4-0.8s10.7,0.4,11.6,0.4c0.9,0,4.1,0.2,4.1,0.4s-1.9,0.9-2.5,1
		C292.9,311.8,277.4,311.4,253,312.2z"/>
	<circle class="st15" cx="271" cy="324" r="1.6"/>
	<ellipse class="st21" cx="271" cy="324" rx="2.9" ry="0.5"/>
	<path class="st22" d="M302.3,327c0.1,0.7-0.4,1.3-1.1,1.3l0,0c-0.7,0-1.4-0.6-1.6-1.3l-0.6-3.5c-0.1-0.7,0.4-1.3,1.1-1.3l0,0
		c0.7,0,1.4,0.6,1.6,1.3L302.3,327z"/>
</g>
<polygon class="st23" points="297.5,339.3 295,337.9 297.9,337.6 297.7,336.5 294.8,336.8 297,334.8 296.7,334.5 294.6,336.5 
	295.2,333.7 294.1,333.4 293.5,336.3 292.3,333.6 291.9,333.8 293.1,336.4 290.6,335 290.1,335.9 292.6,337.4 289.7,337.8 
	289.7,338.2 292.6,337.8 290.5,339.7 291.2,340.5 293.4,338.6 292.8,341.5 293.2,341.6 293.8,338.7 294.9,341.3 295.9,340.9 
	294.7,338.2 297.3,339.7 "/>
<polygon class="st23" points="236.8,339.3 234.2,337.9 237.1,337.6 237,336.5 234,336.8 236.2,334.8 235.9,334.5 233.8,336.5 
	234.4,333.7 233.4,333.4 232.7,336.3 231.5,333.6 231.1,333.8 232.3,336.4 229.9,335 229.3,335.9 231.8,337.4 228.9,337.8 
	228.9,338.2 231.8,337.8 229.7,339.7 230.4,340.5 232.6,338.6 232,341.5 232.4,341.6 233,338.7 234.2,341.3 235.1,340.9 234,338.2 
	236.6,339.7 "/>
</svg>
