<?xml version="1.0" encoding="utf-8"?>
<!-- Generator: Adobe Illustrator 21.0.1, SVG Export Plug-In . SVG Version: 6.00 Build 0)  -->
<svg version="1.1" id="Layer_1" xmlns="http://www.w3.org/2000/svg" xmlns:xlink="http://www.w3.org/1999/xlink" x="0px" y="0px"
	 viewBox="0 0 400 400" style="enable-background:new 0 0 400 400;" xml:space="preserve">
<style type="text/css">
	.st0{fill:none;}
	.st1{fill:#CCCAE2;}
	.st2{fill:#9899C6;}
	.st3{fill:#353535;}
	.st4{opacity:0.45;}
	.st5{fill:url(#SVGID_1_);}
	.st6{fill:#1A1A1A;}
	.st7{fill:#E6E6E6;}
	.st8{fill:#F2F2F2;}
	.st9{fill:#D6D6D6;}
	.st10{fill:#666666;}
	.st11{fill:#545454;}
	.st12{fill:#BABABA;}
	.st13{fill:url(#SVGID_2_);}
	.st14{fill:#242424;}
	.st15{fill:#121212;}
	.st16{fill:#CCCCCC;}
	.st17{fill:#B3B3B3;}
	.st18{fill:url(#SVGID_3_);}
	.st19{fill:#DFDFDF;}
	.st20{fill:#969696;}
	.st21{fill:#E0E0E0;}
	.st22{fill:#545759;}
	.st23{fill:#62778C;}
	.st24{fill:#576D82;}
	.st25{fill:#73777A;}
	.st26{fill:#4D4D4D;}
	.st27{fill:#3D3D3D;}
	.st28{fill:#999999;}
	.st29{fill:#FFFFFF;}
	.st30{fill:#DEDEDE;}
	.st31{fill:#E06A10;}
	.st32{fill:#F07D26;}
	.st33{fill:#D15A10;}
	.st34{fill:#ABABAB;}
	.st35{fill:#D4D4D4;}
	.st36{fill:#8C8C8C;}
	.st37{fill:#5C5C5C;}
	.st38{fill:#4A4A4A;}
	.st39{fill:#F7781E;}
	.st40{fill:#FF8E3D;}
	.st41{fill:#EB681D;}
	.st42{fill:#B0B0B0;}
	.st43{fill:url(#SVGID_4_);}
	.st44{fill:url(#SVGID_5_);}
	.st45{fill:url(#SVGID_6_);}
	.st46{fill:url(#SVGID_7_);}
	.st47{fill:#808080;}
	.st48{fill:#B34214;}
	.st49{fill:#A83514;}
	.st50{fill:#B5B5B5;}
	.st51{fill:#C4C4C4;}
	.st52{fill:#757575;}
</style>
<g>
	<g>
		<path class="st0" d="M23.9,203.1h0.2c0-1,0-2.1,0-3.1c0-0.7,0-1.3,0-2c-0.1,0.2-0.3,0.3-0.6,0.3h0.4V203.1z"/>
		<path class="st1" d="M300.7,242.3l0.1-0.2c-0.1-0.1-0.1-0.2-0.2-0.3l-17.3,6.4c0.9,2.4,2.3,4.7,4.1,6.6L300.7,242.3z"/>
		<path class="st1" d="M301.4,242.6c-0.1,0-0.1-0.1-0.2-0.1l-8.8,16.2c0.6,0.4,1.3,0.7,2,1L301.4,242.6z"/>
		<path class="st1" d="M303.7,241.7l5,2.3l-0.1-2.5l-4.8-0.2C303.7,241.5,303.7,241.6,303.7,241.7z"/>
		<path class="st1" d="M292,258.4l8.4-15.4L287.6,255C288.9,256.3,290.4,257.5,292,258.4z"/>
		<path class="st1" d="M282.1,241.1c0,2.4,0.4,4.7,1.2,6.8l17.3-6.4c0-0.1-0.1-0.2-0.1-0.3l-18.4-0.6
			C282.1,240.8,282.1,241,282.1,241.1z"/>
		<path class="st1" d="M303.5,242.1l0.3,0.6l5.1,5.4l-0.2-3.8l-5.2-2.4C303.5,242,303.5,242,303.5,242.1z"/>
		<path class="st1" d="M302.1,239.5l0.6-18.4c-0.2,0-0.3,0-0.5,0c-2.3,0-4.5,0.4-6.5,1.1l6.1,17.4
			C301.8,239.6,302,239.5,302.1,239.5z"/>
		<polygon class="st1" points="309.1,252.4 308.9,248.5 304.3,243.6 		"/>
		<path class="st1" d="M302.2,261.2c2.3,0,4.5-0.4,6.5-1.1l-6.1-17.4c-0.1,0-0.2,0-0.3,0.1l-0.6,18.4
			C301.8,261.2,302,261.2,302.2,261.2z"/>
		<path class="st1" d="M295.4,222.3c-2.6,0.9-4.9,2.3-6.8,4.2l12.6,13.5c0.1-0.1,0.2-0.2,0.3-0.2L295.4,222.3z"/>
		<path class="st1" d="M309.5,261.5l-0.1-1.3c-0.1,0-0.2,0.1-0.3,0.1L309.5,261.5z"/>
		<path class="st1" d="M302.8,242.6l6.1,17.4c0.2-0.1,0.3-0.1,0.5-0.2l-0.3-6.2l-6.1-11.2C303,242.5,302.9,242.6,302.8,242.6z"/>
		<path class="st1" d="M24.1,198c0,0.7,0,1.3,0,2c0,1.1,0,2.1,0,3.1h1.4l1,2.7h6.8v4.1h17.7v2.7h2.2v2.1h-1v63.8h8.5v-45.4h0.8v-3.4
			h1.6v-11.2h0.6v11.2H65v-8.9h0.6v8.9h2.7v3.4h3.4V245h6.3v0.8h-0.8v2.4h4.2v-36.9h-0.6v-0.9H85v-5.7h-0.6v-0.9h3.9v-3.3h-0.6v-0.7
			h1.9v-3.1h1.9v-6.2h0.2h0.2h0.2v6.2h0.8v-11.1h0.2h0.2h0.2v11.1h0.3h1.6v3.1H97v0.7h-0.4v3.3h3.9v0.9H100v5.7h4.3v0.9h-0.6v48.2
			h13v6.7h4.7v-35.7h-2.7v-0.9h2.7V228h3.5v-2.7h16.8v-30.6h4v-24.4h7.7v-13.3h1.1v13.3h2.4v-10.7h1.1v10.7h12.2v14.5h2.2v9.9h6.2
			v36.9h2.4v8.5l3.5-0.9v-1.9h3.1v1.2l5.6-1.4v-2.2h3.1v1.5l5.2-1.3v-10.7h1.4v-18.5h6.6v-7h3.6v-5.9h1.3V183h0.3v10.1h1.3v5.9h3.6
			v7h6.7v18.5h1.3v58h6.2v-36.1h-1.5v-0.6h17.3v-7.5h-2v-0.9h-1v-2.3h4.6v-2.6h-0.6v-0.7h10.1v0.7h-0.6v2.6h13.3
			c0.4-2.2,1.1-4.3,2-6.3l-2.2-1c-0.4,0.8-1.2,1.4-2.2,1.4c-1.3,0-2.4-1.1-2.4-2.4c0-1.3,1.1-2.4,2.4-2.4s2.4,1.1,2.4,2.4
			c0,0.3,0,0.5-0.1,0.8l2.2,1c1.4-3.1,3.4-5.9,5.9-8.4c0.2-0.2,0.4-0.4,0.6-0.6l-1.7-1.9c-0.4,0.4-1,0.6-1.6,0.6
			c-1.3,0-2.4-1.1-2.4-2.4c0-1.3,1.1-2.4,2.4-2.4c1.3,0,2.4,1.1,2.4,2.4c0,0.6-0.2,1.2-0.6,1.6l1.8,1.9c3-2.8,6.4-4.9,10.1-6.2
			l-1-2.7c-0.2,0.1-0.4,0.1-0.7,0.1c-1.3,0-2.4-1.1-2.4-2.4c0-1.3,1.1-2.4,2.4-2.4s2.4,1.1,2.4,2.4c0,1-0.6,1.9-1.5,2.2l1,2.7
			c3.1-1.1,6.3-1.6,9.7-1.6c0.3,0,0.6,0,0.8,0l0.1-3.4c-1.2-0.2-2.1-1.2-2.1-2.4c0-1.3,1.1-2.4,2.4-2.4s2.4,1.1,2.4,2.4
			s-1.1,2.4-2.4,2.4c0,0-0.1,0-0.1,0l-0.1,3.4c1.4,0,2.7,0.2,4,0.4l-1.2-27.7l44.3,9.2v48.5h7.7v-25h13.9v-10h0.8v10h1.5v-18.4h0.8
			v18.4h1.8v-13.3h0.8v13.3h2.3v11.3c1.5-9.2,2.2-18.7,2.2-28.4c0-98.9-80.1-179-179-179c-98,0-177.6,78.7-179,176.3
			c0.1,0.1,0.1,0.2,0.1,0.3C24.2,197.8,24.2,197.9,24.1,198z"/>
		<path class="st1" d="M287.1,255c-1.8-1.9-3.2-4.2-4.1-6.7l-7.5,2.7v0.9c1.3,3.2,3.2,6.1,5.6,8.7L287.1,255z"/>
		<path class="st1" d="M282.1,240.4l18.4,0.6c0-0.1,0-0.3,0.1-0.4l-16.8-7.7C282.8,235.2,282.2,237.7,282.1,240.4z"/>
		<path class="st1" d="M275.5,250.1v0.7l7.4-2.7c-0.8-2.2-1.2-4.5-1.2-6.9c0-0.2,0-0.4,0-0.5l-6.2-0.2v8.9h1.1v0.9H275.5z"/>
		<path class="st1" d="M301,240.1l-12.6-13.5c-1.8,1.7-3.3,3.7-4.3,6l16.8,7.7C300.8,240.2,300.9,240.1,301,240.1z"/>
		<path class="st1" d="M275.5,261.6v1.2c0.4-0.3,0.9-0.5,1.5-0.5c0.6,0,1.2,0.3,1.7,0.7l1.8-1.7c-2-2.2-3.7-4.6-5-7.3v6.8h1.1v0.9
			H275.5z"/>
		<path class="st1" d="M288.5,266.4V266l-0.2,0.3C288.3,266.4,288.4,266.4,288.5,266.4z"/>
		<path class="st1" d="M287.5,267.8h0.9v-0.4c-0.2-0.1-0.4-0.2-0.5-0.3L287.5,267.8z"/>
		<path class="st1" d="M287.3,255.2l-6,5.7c0.2,0.2,0.4,0.4,0.6,0.6c1.8,1.8,3.8,3.4,6,4.6l0.6-1.2v-2.5h1.4l2-3.6
			C290.1,257.8,288.6,256.6,287.3,255.2z"/>
		<path class="st1" d="M280.7,261.4l-1.8,1.7c0.3,0.4,0.6,1,0.6,1.5c0,1.3-1.1,2.4-2.4,2.4c-0.6,0-1.1-0.2-1.5-0.5v5.6h1.1v0.9h-1.1
			v10.6h1.1v0.9h-1.1v3.3h0.5L283,275v-5.3h-1v-2h4.9l0.5-1c-2.2-1.3-4.3-2.9-6.2-4.7C281.1,261.8,280.9,261.6,280.7,261.4z"/>
		<polygon class="st1" points="283,287.8 283,276.2 276.6,287.8 		"/>
		<path class="st1" d="M302.2,261.6c-0.2,0-0.4,0-0.5,0l-0.2,6.2h1.3v-5.4h6.8l-0.7-1.9C306.7,261.2,304.5,261.6,302.2,261.6z"/>
		<path class="st1" d="M301.7,242.7l-7,17.1c2.1,0.8,4.3,1.3,6.7,1.4l0.6-18.4C301.9,242.7,301.8,242.7,301.7,242.7z"/>
		<path class="st1" d="M291.6,267.3v0.5h2.8v-5.4h2.8v5.4h4l0.2-6.2c-2.4-0.1-4.7-0.6-6.9-1.5L291.6,267.3z"/>
		<path class="st1" d="M291.6,266.6l2.7-6.6c-0.7-0.3-1.4-0.6-2-1l-1.8,3.4h1.1V266.6z"/>
		<path class="st1" d="M302.3,239.5c0.1,0,0.2,0,0.3,0.1l5.3-12.9l-0.2-4.9c-1.5-0.4-3.1-0.7-4.8-0.8L302.3,239.5z"/>
		<path class="st1" d="M303.8,241.1l4.8,0.2l-0.1-2.3l-4.8,1.8C303.7,240.8,303.8,240.9,303.8,241.1z"/>
		<path class="st1" d="M307.7,221.4l-0.4-8.6c-1.3-0.2-2.7-0.4-4.1-0.4l-0.3,8.3C304.6,220.8,306.2,221,307.7,221.4z"/>
		<path class="st1" d="M303.2,239.9l5.1-4.8l-0.3-7.8l-5.1,12.3C303,239.8,303.1,239.9,303.2,239.9z"/>
		<path class="st1" d="M303.6,240.5l4.8-1.8l-0.1-3.1l-4.9,4.6C303.5,240.2,303.6,240.3,303.6,240.5z"/>
		<path class="st1" d="M295.2,221.9l-2.8-7.8c-3.6,1.3-7,3.3-9.9,6l5.7,6C290.3,224.3,292.6,222.8,295.2,221.9z"/>
		<path class="st1" d="M288.1,226.3l-5.7-6c-0.2,0.2-0.4,0.4-0.6,0.6c-2.4,2.4-4.3,5.2-5.7,8.1l7.5,3.5
			C284.7,230.1,286.2,228.1,288.1,226.3z"/>
		<path class="st1" d="M278.5,237.5h-1v0.9h-2v1.8l6.2,0.2c0.1-2.7,0.7-5.3,1.8-7.7l-7.5-3.5c-0.9,1.9-1.5,3.9-2,5.9h4.4V237.5z"/>
		<path class="st1" d="M302.2,220.7c0.2,0,0.4,0,0.5,0l0.3-8.3c-0.3,0-0.5,0-0.8,0c-3.3,0-6.4,0.5-9.4,1.6l2.8,7.8
			C297.6,221.1,299.8,220.7,302.2,220.7z"/>
		<path class="st2" d="M24.1,198c0-0.2,0-0.4,0-0.6c-0.1-0.2-0.3-0.4-0.6-0.4c-0.4,0-0.7,0.3-0.7,0.7c0,0.4,0.3,0.7,0.7,0.7
			C23.8,198.3,24,198.2,24.1,198z"/>
		<path class="st2" d="M24.2,197.7c0-0.1,0-0.2-0.1-0.3c0,0.2,0,0.4,0,0.6C24.2,197.9,24.2,197.8,24.2,197.7z"/>
		<path class="st2" d="M379.8,217.1h-2.3v-13.3h-0.8v13.3H375v-18.4h-0.8v18.4h-1.5v-10h-0.8v10h-13.9v25h-7.7v-48.5l-44.3-9.2
			l1.2,27.7c-1.3-0.2-2.7-0.4-4-0.4l0.1-3.4c0,0,0.1,0,0.1,0c1.3,0,2.4-1.1,2.4-2.4s-1.1-2.4-2.4-2.4s-2.4,1.1-2.4,2.4
			c0,1.2,0.9,2.2,2.1,2.4l-0.1,3.4c-0.3,0-0.6,0-0.8,0c-3.4,0-6.6,0.6-9.7,1.6l-1-2.7c0.9-0.4,1.5-1.2,1.5-2.2
			c0-1.3-1.1-2.4-2.4-2.4s-2.4,1.1-2.4,2.4c0,1.3,1.1,2.4,2.4,2.4c0.2,0,0.4,0,0.7-0.1l1,2.7c-3.7,1.3-7.2,3.4-10.1,6.2l-1.8-1.9
			c0.4-0.4,0.6-1,0.6-1.6c0-1.3-1.1-2.4-2.4-2.4c-1.3,0-2.4,1.1-2.4,2.4c0,1.3,1.1,2.4,2.4,2.4c0.6,0,1.2-0.2,1.6-0.6l1.7,1.9
			c-0.2,0.2-0.4,0.4-0.6,0.6c-2.5,2.5-4.5,5.3-5.9,8.4l-2.2-1c0.1-0.2,0.1-0.5,0.1-0.8c0-1.3-1.1-2.4-2.4-2.4s-2.4,1.1-2.4,2.4
			c0,1.3,1.1,2.4,2.4,2.4c1,0,1.8-0.6,2.2-1.4l2.2,1c-0.9,2-1.6,4.1-2,6.3h-13.3v-2.6h0.6v-0.7h-10.1v0.7h0.6v2.6h-4.6v2.3h1v0.9h2
			v7.5h-17.3v0.6h1.5v36.1h-6.2v-58H226v-18.5h-6.7v-7h-3.6v-5.9h-1.3V183h-0.3v10.1h-1.3v5.9h-3.6v7h-6.6v18.5h-1.4v10.7l-5.2,1.3
			v-1.5h-3.1v2.2l-5.6,1.4v-1.2h-3.1v1.9l-3.5,0.9v-8.5h-2.4v-36.9h-6.2v-9.9h-2.2v-14.5h-12.2v-10.7h-1.1v10.7h-2.4v-13.3h-1.1
			v13.3h-7.7v24.4h-4v30.6h-16.8v2.7h-3.5v1.6h-2.7v0.9h2.7v35.7h-4.7v-6.7h-13v-48.2h0.6v-0.9H100v-5.7h0.6v-0.9h-3.9v-3.3H97v-0.7
			h-1.7v-3.1h-1.6h-0.3v-11.1h-0.2h-0.2h-0.2v11.1h-0.8v-6.2h-0.2h-0.2h-0.2v6.2h-1.9v3.1h-1.9v0.7h0.6v3.3h-3.9v0.9H85v5.7h-4.3
			v0.9h0.6v36.9h-4.2v-2.4h0.8V245h-6.3v-11.8h-3.4v-3.4h-2.7v-8.9H65v8.9h-1.3v-11.2h-0.6v11.2h-1.6v3.4h-0.8v45.4h-8.5v-63.8h1
			v-2.1h-2.2V210H33.3v-4.1h-6.8l-1-2.7h-1.4c0.8,45.5,18.5,86.8,47.2,118h8H85h6.7h27h6.2h10.5h3.7h16.6h4.5h15.5h1.5h1.5h5.6h3.1
			h5.6h2.6h0.5h5.6h3.1h4.8h0.8h1.5h1.5h4.1h21h3h1.4h6.3h11.1h10.2h4.8h7.4h18.5h19.5h0.2h13.7c23.3-25.3,39.3-57.3,45-92.8V217.1z
			 M309.5,261.5l-0.4-1.1c0.1,0,0.2-0.1,0.3-0.1L309.5,261.5z M309.4,259.8c-0.2,0.1-0.3,0.1-0.5,0.2l-6.1-17.4
			c0.1,0,0.2-0.1,0.3-0.1l6.1,11.2L309.4,259.8z M275.5,260.7V254c1.3,2.6,2.9,5.1,5,7.3l-1.8,1.7c-0.4-0.4-1-0.7-1.7-0.7
			c-0.6,0-1.1,0.2-1.5,0.5v-1.2h1.1v-0.9H275.5z M275.5,252v-0.9l7.5-2.7c0.9,2.5,2.4,4.8,4.1,6.7l-6,5.7
			C278.7,258.1,276.8,255.2,275.5,252z M275.5,249.3v-8.9l6.2,0.2c0,0.2,0,0.4,0,0.5c0,2.4,0.4,4.8,1.2,6.9l-7.4,2.7v-0.7h1.1v-0.9
			H275.5z M300.6,240.6c0,0.1-0.1,0.2-0.1,0.4l-18.4-0.6c0.1-2.7,0.7-5.2,1.8-7.5L300.6,240.6z M284,232.6c1.1-2.3,2.6-4.3,4.3-6
			l12.6,13.5c-0.1,0.1-0.1,0.2-0.2,0.3L284,232.6z M300.5,241.2c0,0.1,0,0.2,0.1,0.3l-17.3,6.4c-0.8-2.1-1.2-4.4-1.2-6.8
			c0-0.2,0-0.3,0-0.5L300.5,241.2z M283.4,248.2l17.3-6.4c0,0.1,0.1,0.2,0.2,0.3l-0.1,0.2l-13.3,12.5
			C285.7,252.9,284.3,250.6,283.4,248.2z M300.3,243l-8.4,15.4c-1.6-1-3.1-2.1-4.4-3.5L300.3,243z M301.2,242.5
			c0.1,0,0.1,0.1,0.2,0.1l-7,17.1c-0.7-0.3-1.3-0.6-2-1L301.2,242.5z M301.2,239.9l-12.6-13.5c2-1.8,4.3-3.2,6.8-4.2l6.1,17.4
			C301.4,239.7,301.3,239.8,301.2,239.9z M295.6,222.2c2.1-0.7,4.3-1.1,6.5-1.1c0.2,0,0.3,0,0.5,0l-0.6,18.4c-0.1,0-0.2,0-0.3,0.1
			L295.6,222.2z M302.2,242.8c0.1,0,0.2,0,0.3-0.1l6.1,17.4c-2.1,0.7-4.3,1.1-6.5,1.1c-0.2,0-0.3,0-0.5,0L302.2,242.8z M309.1,252.4
			l-4.8-8.8l4.6,4.9L309.1,252.4z M308.9,248.1l-5.1-5.4l-0.3-0.6c0,0,0.1-0.1,0.1-0.1l5.2,2.4L308.9,248.1z M308.7,244l-5-2.3
			c0-0.1,0.1-0.2,0.1-0.4l4.8,0.2L308.7,244z M308.6,241.2l-4.8-0.2c0-0.1,0-0.2-0.1-0.3l4.8-1.8L308.6,241.2z M308.5,238.7
			l-4.8,1.8c-0.1-0.1-0.1-0.2-0.2-0.3l4.9-4.6L308.5,238.7z M308.3,235.2l-5.1,4.8c-0.1-0.1-0.2-0.2-0.3-0.2l5.1-12.3L308.3,235.2z
			 M307.9,226.7l-5.3,12.9c-0.1,0-0.2-0.1-0.3-0.1l0.6-18.4c1.6,0.1,3.2,0.3,4.8,0.8L307.9,226.7z M303.2,212.4
			c1.4,0.1,2.7,0.2,4.1,0.4l0.4,8.6c-1.5-0.4-3.1-0.7-4.7-0.8L303.2,212.4z M302.2,212.4c0.3,0,0.5,0,0.8,0l-0.3,8.3
			c-0.2,0-0.4,0-0.5,0c-2.3,0-4.6,0.4-6.7,1.1l-2.8-7.8C295.7,212.9,298.9,212.4,302.2,212.4z M292.5,214.1l2.8,7.8
			c-2.6,0.9-5,2.4-7,4.2l-5.7-6C285.5,217.4,288.8,215.4,292.5,214.1z M281.8,220.8c0.2-0.2,0.4-0.4,0.6-0.6l5.7,6
			c-1.8,1.7-3.3,3.8-4.4,6.1l-7.5-3.5C277.5,226,279.4,223.2,281.8,220.8z M274,235.1c0.4-2,1.1-4,2-5.9l7.5,3.5
			c-1.1,2.3-1.7,4.9-1.8,7.7l-6.2-0.2v-1.8h2v-0.9h1v-2.3H274z M283,287.8h-6.3l6.3-11.7V287.8z M286.9,267.8H282v2h1v5.3l-6.9,12.8
			h-0.5v-3.3h1.1v-0.9h-1.1V273h1.1v-0.9h-1.1v-5.6c0.4,0.3,0.9,0.5,1.5,0.5c1.3,0,2.4-1.1,2.4-2.4c0-0.6-0.2-1.1-0.6-1.5l1.8-1.7
			c0.2,0.2,0.4,0.4,0.6,0.6c1.9,1.9,4,3.5,6.2,4.7L286.9,267.8z M288.5,267.8h-0.9l0.4-0.7c0.2,0.1,0.4,0.2,0.5,0.3V267.8z
			 M288.5,266.4c-0.1,0-0.1-0.1-0.2-0.1l0.2-0.3V266.4z M288.5,262.4v2.5l-0.6,1.2c-2.2-1.2-4.2-2.8-6-4.6c-0.2-0.2-0.4-0.4-0.6-0.6
			l6-5.7c1.3,1.4,2.8,2.6,4.5,3.6l-2,3.6H288.5z M292.3,259c0.6,0.4,1.3,0.7,2,1l-2.7,6.6v-4.2h-1.1L292.3,259z M301.2,267.8h-4
			v-5.4h-2.8v5.4h-2.8v-0.5l2.9-7.2c2.1,0.9,4.4,1.4,6.9,1.5L301.2,267.8z M301.4,261.2c-2.4-0.1-4.6-0.6-6.7-1.4l7-17.1
			c0.1,0,0.2,0.1,0.3,0.1L301.4,261.2z M302.7,262.4v5.4h-1.3l0.2-6.2c0.2,0,0.4,0,0.5,0c2.3,0,4.6-0.4,6.7-1.1l0.7,1.9H302.7z"/>
	</g>
	<g>
		<path class="st2" d="M118.6,321.1h4l-24.8-16.1c-0.8-0.5-2-0.3-2.5,0.5l-10,15.5h6.4H118.6z"/>
		<path class="st3" d="M321.1,321.1h-0.2h-19.5H283h-7.4h-4.8h-10.2h-11.1h-6.3h-1.4h-3h-21h-4.1H212h-1.5h-0.8h-4.8h-3.1h-5.6h-0.5
			h-2.6h-5.6h-3.1h-5.6h-1.5h-1.5h-15.5h-4.5h-16.6h-3.7h-10.5h-2.3h-4h-27h-6.4H85h-5.7h-8c2.7,2.9,5.5,5.8,8.4,8.5
			c23.6,22.5,53.4,38.6,86.5,45.5c11.9,2.5,24.2,3.8,36.8,3.8c52.1,0,99.1-22.3,131.8-57.9H321.1z"/>
	</g>
	<g class="st4">
		<g>
			<path d="M205.4,99.2c-30,0-54.3,24.3-54.3,54.3c0,15.6,7.8,29.8,15.5,42.8c9.4,16.2,20.6,31.4,33.7,44.8c2.8,2.9,7.4,2.9,10.4,0
				c11.5-11.4,21.6-24.2,30.1-37.8c9.2-14.8,19-31.9,19-49.8C259.8,123.6,235.5,99.2,205.4,99.2z M205.4,185c-18.2,0-33-14.8-33-33
				s14.8-33,33-33s33,14.6,33,33S223.6,185,205.4,185z"/>
		</g>
	</g>
	<g>
		<linearGradient id="SVGID_1_" gradientUnits="userSpaceOnUse" x1="150.8732" y1="161.1593" x2="259.6292" y2="161.1593">
			<stop  offset="0" style="stop-color:#F69453"/>
			<stop  offset="0.5" style="stop-color:#F37521"/>
			<stop  offset="1" style="stop-color:#D4622A"/>
		</linearGradient>
		<path class="st5" d="M205.2,89.1c-30,0-54.3,24.3-54.3,54.3c0,15.6,7.8,29.8,15.5,42.8c9.4,16.2,20.6,31.4,33.7,44.8
			c2.8,2.9,7.4,2.9,10.4,0c11.5-11.4,21.6-24.2,30.1-37.8c9.2-14.8,19-31.9,19-49.8C259.5,113.5,235.2,89.1,205.2,89.1z
			 M205.2,174.9c-18.2,0-33-14.8-33-33s14.8-33,33-33s33,14.6,33,33S223.4,174.9,205.2,174.9z"/>
	</g>
	<g>
		<path class="st6" d="M270.6,322.9H125.8v-12.2h92.9c0,0,6,1.8,12.6,3.5c5.9,1.5,20-3.3,23-3.3
			C263.1,310.9,270.6,322.9,270.6,322.9z"/>
		<path class="st7" d="M191.5,283.7c0-0.9-0.7-1.3-1.6-1.6c0,0-4.3-1-10.3-1c-5.9,0-10.8,1-10.8,1c-1.9,0.3-3.5,0.9-4.6,2.3
			l-9.5,13.1c-0.6,0.8-1.4,1.3-2.4,1.5c-2.8,0.6-8.8,1.7-11.4,2.3c-12.5,2.6-17.9,4.7-17.9,7.9v13l7.1,0c0.2-1.1,1.7-2.2,2.2-3.2
			c2.1-3.9,2-6.5,10.8-6.5c8.7,0,12.2,5.5,12.2,12.2c0,0.4,0.2,0.9,0.5,1.2c0.3,0.3,0.7,0.5,1.2,0.5h32.4c1.2,0,2.1-1,2.1-2.1V283.7
			z"/>
		<g>
			<path class="st8" d="M189.9,282.1c0,0-4.3-1-10.3-1c-5.9,0-10.8,1-10.8,1c-1.9,0.3-3.5,0.9-4.6,2.3l-0.1,0.1
				c1.5-0.6,3.4-0.9,4.7-1.1c0,0,4.8-1,10.8-1c5.9,0,10.3,1,10.3,1c0.9,0.3,1.6,0.7,1.6,1.6v-1.3
				C191.5,282.8,190.8,282.4,189.9,282.1z"/>
		</g>
		<path class="st8" d="M153.3,299.5c-0.3,0.2-0.6,0.3-1,0.3c-2.8,0.6-8.8,1.7-11.4,2.3c-10.5,2.2-15.7,4-17.2,6.4
			c0.4,0,0.9,0,1.3,0.1c2.6-1.7,7.7-3.2,15.8-4.9c2.6-0.5,8.6-1.7,11.4-2.3c0.9-0.2,1.7-0.7,2.3-1.4
			C154.1,300,153.7,299.9,153.3,299.5z"/>
		<path class="st9" d="M152.4,305.7c-2.8,0.6-29.3,3.5-29.3,6.7v9.9l7.1,0c0.2-1.1,1.7-2.2,2.2-3.2c2.1-3.9,2-6.5,10.8-6.5
			c8.7,0,12.2,5.5,12.2,12.2c0,0.4,0.2,0.9,0.5,1.2c0.3,0.3,0.7,0.5,1.2,0.5h32.4c1.2,0,2.1-1,2.1-2.1v-18.9
			C191.5,304.6,153.3,305.5,152.4,305.7z"/>
		<path class="st10" d="M154.1,318.7c0.8,1.8,1.2,3.9,1.2,6.1c0,0.4,0.2,0.9,0.5,1.2c0.3,0.3,0.7,0.5,1.2,0.5h32.4
			c1.2,0,2.1-1,2.1-2.1v-5.6H154.1z"/>
		<path class="st11" d="M158.9,326.1c0-2.2,0.2-4.3-0.6-6.1h30.5c0.7,0,1.4,0.5,1.6,1.2l1.1,3.5l0-6h-37.4c0.8,1.8,1.2,3.9,1.2,6.1
			c0,0.4,0.2,0.9,0.5,1.2c0.3,0.3,0.7,0.5,1.2,0.5h2C158.9,326.3,158.9,326.2,158.9,326.1z"/>
		<polygon class="st12" points="237.8,311.9 238.5,312.7 245.8,291.1 245.1,290.2 		"/>
		<polygon class="st9" points="238.3,311.9 245.4,290.6 245.1,290.2 237.8,311.9 238.5,312.7 238.7,312.3 		"/>
		<path class="st10" d="M133.8,316.2h-11.3c-0.4,0-0.7,0.2-1,0.4c-0.3,0.3-0.4,0.7-0.3,1l0.5,4.9c0.1,0.7,0.7,1.3,1.5,1.3h5.8
			c1.1,0,1.7-0.2,2.3-1.8C132.1,319.7,132.7,318.4,133.8,316.2z"/>
		<g>
			<path class="st12" d="M190.7,324.8h-32.4c-0.4,0-0.9-0.2-1.2-0.5c-0.3-0.3-0.5-0.7-0.5-1.2c0-6.7-3.5-12.2-12.2-12.2
				c-8.7,0-11.6,1.9-13.4,6.4c-0.4,0.9,0.2,2.3,0.8,3c0.3-0.6,0.3-0.9,0.5-1.2c1.7-3.3,1.8-6.6,10.7-6.6c8.7,0.1,12.2,5.5,12.2,12.2
				c0,0.4,0.2,0.9,0.5,1.2c0.3,0.3,0.7,0.5,1.2,0.5h32.4c1.1,0,1.9-0.8,2.1-1.8C191.2,324.7,191,324.8,190.7,324.8z"/>
		</g>
		<path class="st11" d="M131.6,316.2c-0.6,1.2-1,2.4-1.6,4c-0.6,1.6-1.2,1.8-2.3,1.8h-5.8c-0.1,0-0.2,0-0.3,0l0.1,0.6
			c0.1,0.7,0.7,1.3,1.5,1.3h5.8c1.1,0,1.7-0.2,2.3-1.8c0.9-2.4,1.4-3.6,2.6-5.9H131.6z"/>
		<g>
			<linearGradient id="SVGID_2_" gradientUnits="userSpaceOnUse" x1="143.202" y1="314.6821" x2="143.202" y2="334.1021">
				<stop  offset="0.4051" style="stop-color:#4D4D4D"/>
				<stop  offset="0.579" style="stop-color:#1A1A1A"/>
			</linearGradient>
			<circle class="st13" cx="143.2" cy="324.8" r="10"/>
			<circle class="st14" cx="143.2" cy="324.8" r="8.6"/>
			<circle class="st15" cx="143.2" cy="324.8" r="5.1"/>
			<circle class="st7" cx="143.2" cy="324.8" r="4.6"/>
			<circle class="st16" cx="143.2" cy="324.8" r="4"/>
			<circle class="st17" cx="143.2" cy="324.8" r="2.2"/>
			<linearGradient id="SVGID_3_" gradientUnits="userSpaceOnUse" x1="143.2021" y1="323.3511" x2="143.2021" y2="326.1964">
				<stop  offset="2.564100e-03" style="stop-color:#E6E6E6"/>
				<stop  offset="0.9974" style="stop-color:#999999"/>
			</linearGradient>
			<circle class="st18" cx="143.2" cy="324.8" r="1.4"/>
			<circle class="st19" cx="143.2" cy="324.8" r="1"/>
			<g>
				<g>
					<circle class="st20" cx="143.3" cy="321.8" r="0.4"/>
					<circle class="st21" cx="143.2" cy="321.7" r="0.4"/>
				</g>
				<g>
					
						<ellipse transform="matrix(0.809 -0.5878 0.5878 0.809 -162.4119 144.7318)" class="st20" cx="141.5" cy="322.3" rx="0.4" ry="0.4"/>
					
						<ellipse transform="matrix(0.809 -0.5878 0.5878 0.809 -162.4315 144.6521)" class="st21" cx="141.4" cy="322.3" rx="0.4" ry="0.4"/>
				</g>
				<g>
					
						<ellipse transform="matrix(0.309 -0.9511 0.9511 0.309 -210.9261 357.2007)" class="st20" cx="140.4" cy="323.8" rx="0.4" ry="0.4"/>
					
						<ellipse transform="matrix(0.309 -0.9511 0.9511 0.309 -211.0647 357.1555)" class="st21" cx="140.3" cy="323.8" rx="0.4" ry="0.4"/>
				</g>
				<g>
					
						<ellipse transform="matrix(0.9511 -0.309 0.309 0.9511 -93.7529 59.2893)" class="st20" cx="140.3" cy="325.6" rx="0.4" ry="0.4"/>
					
						<ellipse transform="matrix(0.9511 -0.309 0.309 0.9511 -93.7993 59.2902)" class="st21" cx="140.3" cy="325.7" rx="0.4" ry="0.4"/>
				</g>
				<g>
					
						<ellipse transform="matrix(0.5878 -0.809 0.809 0.5878 -206.4215 249.2197)" class="st20" cx="141.3" cy="327.2" rx="0.4" ry="0.4"/>
					
						<ellipse transform="matrix(0.5878 -0.809 0.809 0.5878 -206.5015 249.3006)" class="st21" cx="141.4" cy="327.3" rx="0.4" ry="0.4"/>
				</g>
				<g>
					<circle class="st20" cx="143.1" cy="327.8" r="0.4"/>
					<circle class="st21" cx="143.2" cy="327.9" r="0.4"/>
				</g>
				<g>
					
						<ellipse transform="matrix(0.809 -0.5878 0.5878 0.809 -164.7091 147.6844)" class="st20" cx="144.9" cy="327.3" rx="0.4" ry="0.4"/>
					
						<ellipse transform="matrix(0.809 -0.5878 0.5878 0.809 -164.6783 147.7448)" class="st21" cx="145" cy="327.3" rx="0.4" ry="0.4"/>
				</g>
				<g>
					
						<ellipse transform="matrix(0.309 -0.9511 0.9511 0.309 -208.9581 364.0208)" class="st20" cx="146" cy="325.8" rx="0.4" ry="0.4"/>
					
						<ellipse transform="matrix(0.309 -0.9511 0.9511 0.309 -208.8194 364.0659)" class="st21" cx="146.1" cy="325.7" rx="0.4" ry="0.4"/>
				</g>
				<g>
					<ellipse transform="matrix(0.9511 -0.309 0.309 0.9511 -92.9517 61)" class="st20" cx="146.1" cy="324" rx="0.4" ry="0.4"/>
					
						<ellipse transform="matrix(0.9511 -0.309 0.309 0.9511 -92.9213 61.0133)" class="st21" cx="146.1" cy="323.8" rx="0.4" ry="0.4"/>
				</g>
				<g>
					
						<ellipse transform="matrix(0.5878 -0.809 0.809 0.5878 -201.0378 250.2568)" class="st20" cx="145.1" cy="322.4" rx="0.4" ry="0.4"/>
					
						<ellipse transform="matrix(0.5878 -0.809 0.809 0.5878 -200.9578 250.1758)" class="st21" cx="145" cy="322.3" rx="0.4" ry="0.4"/>
				</g>
			</g>
		</g>
		<path class="st22" d="M187.5,297c0,0.8-0.3,1.6-0.9,2.1c-0.6,0.6-1.3,0.9-2.1,0.9h-19c-0.5,0-0.9-0.2-1.2-0.7s-0.3-0.9,0-1.3
			l5.9-11.2c0.7-1.3,2-2.1,3.5-2.1h10.7c1.6,0,3,1.3,3,3L187.5,297z"/>
		<path class="st23" d="M165.4,299.4c-0.3,0-0.5-0.1-0.6-0.4c-0.1-0.2-0.2-0.5,0-0.7l6-11.1c0.6-1.2,1.7-1.9,3-1.9h10.7
			c1.3,0,2.4,1.1,2.4,2.4l0,9.3c0,0.6-0.2,1.2-0.7,1.7c-0.5,0.5-1.1,0.7-1.7,0.7H165.4z"/>
		<path class="st24" d="M186.9,287.7c0-1.2-0.9-2.2-2.1-2.4c0,0,0,0.1,0,0.1l0,9.3c0,0.6-0.2,1.2-0.7,1.7c-0.5,0.5-1.1,0.7-1.7,0.7
			h-17.1l-0.6,1.1c-0.1,0.2-0.1,0.5,0,0.7c0.1,0.2,0.4,0.4,0.6,0.4h19.1c0.6,0,1.2-0.3,1.7-0.7c0.5-0.5,0.7-1.1,0.7-1.7L186.9,287.7
			z"/>
		<g>
			<path class="st25" d="M186.5,322c-0.1,0-0.1,0-0.2,0l-0.2,0h-21.4c-0.6,0-1.1-0.3-1.4-0.8c-0.3-0.4-1.5-14.6-1.8-19.4
				c-0.1-1.1,0.3-2.6,0.5-3l6.4-12.8c0.8-1.6,2.4-2.6,4.2-2.6h13.1c3.1,0,3.6,0.9,3.6,3.6l0,11.8c0,0.2-0.6,21.3-1.2,22.1
				C187.6,321.9,187.2,322,186.5,322z M172.6,283.7c-1.7,0-3.2,0.9-4,2.5l-6.4,12.8c-0.2,0.4-0.6,1.9-0.5,2.9
				c0.3,5.3,1.6,18.7,1.8,19.3c0.3,0.4,0.7,0.7,1.2,0.7l21.6,0c0.7,0,1,0,1.6-0.9c0.4-0.7,1.1-20.8,1.1-22l0-11.8
				c0-2.6-0.4-3.3-3.3-3.3H172.6z"/>
		</g>
		<path class="st23" d="M156.6,299c1.2,0.2,2.5-0.5,3.1-1.5l6.3-10.9c0.2-0.4,0.2-0.8,0-1.2c-0.2-0.4-0.6-0.6-1-0.6h-1l-9.8,13.4
			C154,298.6,155.4,298.8,156.6,299z"/>
		<path class="st24" d="M160.7,295.7c-0.6,1.1-1.9,1.7-3.1,1.5c-0.9-0.1-1.9-0.3-2.2-0.5l-1,1.4c-0.3,0.4,1.1,0.6,2.4,0.8
			c1.2,0.2,2.5-0.5,3.1-1.5l6.3-10.9c0.1-0.1,0.1-0.2,0.1-0.4L160.7,295.7z"/>
		<path class="st22" d="M166,286.5c0.2-0.4,0.2-0.8,0-1.2c-0.2-0.4-0.6-0.6-1-0.6h-0.7c0.4,0,1,0.2,1.2,0.6c0.2,0.4,0.2,0.8,0,1.2
			l-6.3,10.9c-0.5,0.9-1.5,1.4-2.5,1.5c1.2,0.1,2.5-0.5,3.1-1.5L166,286.5z"/>
		<path class="st26" d="M185.9,323.2c-0.2,0.7-0.9,1.2-1.6,1.2h-16.9c-0.7,0-1.4-0.5-1.6-1.2l-0.4-1.3h20.9L185.9,323.2z"/>
		<path class="st27" d="M184.4,323.4h-16.9c-1.2,0-2-1.5-2-1.5l0.4,1.3c0.2,0.7,0.9,1.2,1.6,1.2h16.9c0.7,0,1.4-0.5,1.6-1.2l0.4-1.3
			C186.3,321.9,185.7,323.4,184.4,323.4z"/>
		<path class="st28" d="M123.3,316.7c-0.4,0-0.7,0.2-1,0.4c-0.3,0.3-0.4,0.7-0.3,1l0.3,3.4c0,0,0,0,0.1,0l0.1-2.8
			c0-0.4,0.1-0.8,0.3-1c0.3-0.3,0.6-0.4,1-0.4l4.6-0.5c0,0,0,0,0,0H123.3z"/>
		<path class="st17" d="M126.9,309.9c0-0.5-0.4-0.8-0.9-0.8h-2.9c0,0,0,0.1,0,0.1v6.1h3.1c0.3,0,0.6-0.1,0.8-0.4
			c0.2-0.2,0.3-0.6,0.3-0.9L126.9,309.9z"/>
		<path class="st8" d="M126.7,310.2c0-0.4-0.4-0.7-0.8-0.7h-2.9c0,0-0.3,0.4-0.3,2.8c0,2.2,0.3,2.8,0.3,2.8h3c0.3,0,0.6-0.1,0.8-0.3
			c0.2-0.2,0.3-0.5,0.3-0.8L126.7,310.2z"/>
		<path class="st29" d="M123.9,312.8c0-0.2,0-0.3,0-0.5c0-2.4,0.3-2.8,0.3-2.8h-0.9c0,0-0.3,0.4-0.3,2.8
			C123.1,312.4,123.7,312.8,123.9,312.8z"/>
		<path class="st30" d="M127,313.9l-0.4-3.7c0-0.4-0.4-0.7-0.8-0.7h-0.8c0.4,0,0.7,0.3,0.8,0.7l0.4,3.7c0,0.3-0.1,0.6-0.3,0.8
			s-0.5,0.3-0.8,0.3h0.8c0.3,0,0.6-0.1,0.8-0.3S127.1,314.2,127,313.9z"/>
		<path class="st31" d="M126.9,312.4c0,0.1-0.1,0.1-0.1,0.2c-0.2,0.2-0.5,0.3-0.8,0.3h-3.2c0.1,1.4,0.3,2.1,0.3,2.1h3
			c0.3,0,0.6-0.1,0.8-0.3s0.3-0.5,0.3-0.8L126.9,312.4z"/>
		<g>
			<path class="st32" d="M123.1,312.9c0.1,1.4,0.3,2.1,0.3,2.1h0.9c0,0-0.2-0.7-0.3-2.1H123.1z"/>
		</g>
		<path class="st33" d="M127,313.9l-0.1-1.5c0,0.1-0.1,0.1-0.1,0.2c-0.2,0.2-0.4,0.3-0.6,0.3l0.1,1c0,0.3-0.1,0.6-0.3,0.8
			s-0.5,0.3-0.8,0.3h0.8c0.3,0,0.6-0.1,0.8-0.3S127.1,314.2,127,313.9z"/>
		<ellipse class="st34" cx="184.8" cy="303.1" rx="2.6" ry="0.9"/>
		<rect x="181.7" y="302.7" class="st7" width="6.3" height="0.9"/>
		<path class="st10" d="M266.9,285.7l-0.1-4.1l-58.1,16.8l-5.6-10.2h-6.2l6.1,19.7h10.8l-1.7-3.2c-0.2-0.4-0.3-0.9-0.1-1.3
			c0.2-0.4,0.5-0.8,1-0.9L266.9,285.7z"/>
		<path class="st16" d="M252.9,288.3c0.1,0.4-0.1,0.8-0.5,0.9l-6.4,2c-0.3,0.1-0.7,0.1-1.1-0.1c-0.3-0.2-0.6-0.5-0.6-0.8l-0.3-1.2
			l8.5-2.4L252.9,288.3z"/>
		<path class="st7" d="M237.3,311.6l1.8,1l4-12c0.1-0.2,0-0.4-0.1-0.5s-0.3-0.2-0.5-0.2h-0.8c-0.3,0-0.5,0.2-0.6,0.4L237.3,311.6z"
			/>
		<path class="st35" d="M243,300.6c0.1-0.2,0-0.4-0.1-0.5c-0.2-0.3-0.5-0.2-1.3-0.2c-0.5,0-0.6,0.5-0.7,0.8c0.6,0,0.9-0.1,1.1,0.2
			c0.2,0.3,0.4-0.4-3.5,11.6l0.5,0.3L243,300.6z"/>
		<path class="st36" d="M202.1,289.2c0.4,0,0.8,0.3,0.9,0.6l5.3,9.7l58.1-16.8l0.1,3.1l0.4-0.1l-0.1-4.1l-58.1,16.8l-5.6-10.2h-6.2
			l0.2,0.7L202.1,289.2z"/>
		<polygon class="st11" points="203,307.9 213.8,307.9 212,304.5 202,304.5 		"/>
		<path class="st7" d="M273,317.1c0-0.4-0.2-0.7-0.5-0.9l-10.7-6.3c-0.6-0.3-1.2-0.5-1.9-0.5h-33.6l-1.7-3c-0.4-0.8-1.2-1.2-2.1-1.2
			h-28.7c-0.5,0-1,0.4-1,1v18.3c0,1,0.8,1.7,1.7,1.7h46.7c0.3,0,0.6-0.1,0.8-0.3c0.2-0.2,0.3-0.5,0.3-0.8c0-0.1,0-0.2,0-0.3
			c0-6.7,5.4-12.1,12.1-12.1s12.1,5.4,12.1,12.1c0,0.1,0,0.2,0,0.3c0,0.3,0.1,0.6,0.3,0.8c0.2,0.2,0.5,0.3,0.8,0.3h2.8
			c1.3,0,2.4-1.1,2.4-2.4V317.1z"/>
		<path class="st35" d="M226.3,309.5l-1.7-3c-0.4-0.8-1.2-1.2-2.1-1.2c-30.6,0-28.8,0-29.1,0.1c-0.4,0.1-0.6,0.5-0.6,0.9v18.3
			c0,0.8,0.5,1.4,1.2,1.6V307c0-0.4,0.3-0.8,0.8-0.8h28.6l2.6,4L226.3,309.5z"/>
		<path class="st16" d="M267.8,325c0-0.1,0-0.2,0-0.3c0-6.7-5.4-12.1-12.1-12.1c-0.2,0-0.4,0-0.6,0c6.4,0.3,11.5,5.6,11.5,12.1
			c0,0.1,0,0.2,0,0.3c0,0.3,0.1,0.6,0.3,0.8s0.5,0.3,0.8,0.3h1.2c-0.3,0-0.6-0.1-0.8-0.3C267.9,325.6,267.8,325.3,267.8,325z"/>
		<g>
			<path class="st10" d="M242.4,324.8c0-2.2,0.6-4.3,1.6-6.1h-51.2v5.7c0,1,0.8,1.7,1.7,1.7h46.7c0.3,0,0.6-0.1,0.8-0.3
				c0.2-0.2,0.3-0.5,0.3-0.8C242.4,325,242.4,324.9,242.4,324.8z"/>
			<path class="st10" d="M244,318.7h-51.2v5.7c0,1,0.8,1.7,1.7,1.7h46.7c0.3,0,0.6-0.1,0.8-0.3c0.2-0.2,0.3-0.5,0.3-0.8
				c0-0.1,0-0.2,0-0.3C242.4,322.6,243,320.5,244,318.7z"/>
			<path class="st37" d="M194,324.5v-5.7h-1.2v5.7c0,1,0.8,1.7,1.7,1.7h1.2C194.8,326.2,194,325.4,194,324.5z"/>
			<path class="st11" d="M195.6,320H239c1.7,0,2.1,3.9,2.2,3.9c0.4-0.2,1.2-4.6,1.2-5c0,0,0-0.1,0-0.1h-49.6c0,0.5,0,4.3,0,4.3
				C193.2,322.6,193.8,320,195.6,320z"/>
			<path class="st38" d="M194,318.7h-1.2v4.3c0.2-0.3,0.5-1.4,1.2-2.2V318.7z"/>
			<path class="st10" d="M265,318.7c1,1.8,1.6,3.8,1.6,6.1c0,0.5,0.8,0.2,0.7,0.6l3.2,0.8c1.3,0,2.4-1.1,2.4-2.4v-5.1H265z"/>
		</g>
		<g>
			<path class="st39" d="M199.6,281.1c-1.2,0-2.1,0.7-2.1,1.6v3h4.3v-3C201.8,281.8,200.8,281.1,199.6,281.1z"/>
			<path class="st40" d="M198.9,281.3c-0.6,0.3-1.1,0.8-1.1,1.3v3h0.4v-3C198.2,282.2,198.5,281.7,198.9,281.3z"/>
			<path class="st41" d="M199.6,281.1c-0.2,0-0.3,0-0.5,0c1,0.2,1.7,0.8,1.7,1.5v3h0.9v-3C201.8,281.8,200.8,281.1,199.6,281.1z"/>
			<path class="st10" d="M202.5,286.2h-5.7V286c0-0.4,0.3-0.7,0.7-0.7h4.4c0.4,0,0.7,0.3,0.7,0.7V286.2z"/>
		</g>
		<polygon class="st11" points="203.1,288.1 196.9,288.1 197.1,288.8 203.4,288.8 		"/>
		<rect x="196.8" y="286" class="st11" width="5.7" height="0.4"/>
		<path class="st10" d="M203,288.3h-6.8c-0.4,0-0.8-0.4-0.8-0.8V287c0-0.4,0.4-0.8,0.8-0.8h6.8c0.4,0,0.8,0.4,0.8,0.8v0.6
			C203.8,288,203.5,288.3,203,288.3z"/>
		<path class="st11" d="M270.2,320h2.8v-1.2h-6.6c0,0.5,1.1,4.3,1.1,4.3C267.8,322.6,268.4,320,270.2,320z"/>
		<path class="st12" d="M270.6,324.8h-1.7c-0.3,0-0.6-0.1-0.8-0.4c-0.2-0.2-0.3-0.5-0.3-0.8c0-0.1,0-0.2,0-0.2
			c-0.2-6.9-6.6-12.1-13.3-12.1s-13.3,5.4-13.3,12.1c0,0,0,0.1,0,0.2c0,0.3-0.1,0.6-0.3,0.8c-0.2,0.2-0.5,0.3-0.8,0.3h-45.5
			c-1,0-1.7-0.8-1.7-1.7v1.4c0,1,0.8,1.7,1.7,1.7h46.7c0.3,0,0.6-0.1,0.8-0.3c0.2-0.2,0.3-0.5,0.3-0.8c0-0.1,0-0.2,0-0.3
			c0-6.7,5.4-12.1,12.1-12.1s12.1,5.4,12.1,12.1c0,0.1,0,0.2,0,0.3c0,0.3,0.1,0.6,0.3,0.8s0.5,0.3,0.8,0.3h2.8
			c1.3,0,2.4-1.1,2.4-2.4C273,323.8,272.5,324.8,270.6,324.8z"/>
		<path class="st42" d="M194,326.1L194,326.1l0-1.4c-0.7-0.2-1.2-0.9-1.2-1.6C192.9,324.1,192.6,325.6,194,326.1z"/>
		<g>
			<linearGradient id="SVGID_4_" gradientUnits="userSpaceOnUse" x1="254.4223" y1="314.6821" x2="254.4223" y2="334.1021">
				<stop  offset="0.4051" style="stop-color:#4D4D4D"/>
				<stop  offset="0.579" style="stop-color:#1A1A1A"/>
			</linearGradient>
			<circle class="st43" cx="254.4" cy="324.8" r="10"/>
			<circle class="st14" cx="254.4" cy="324.8" r="8.6"/>
			<circle class="st15" cx="254.4" cy="324.8" r="5.1"/>
			<circle class="st7" cx="254.4" cy="324.8" r="4.6"/>
			<circle class="st16" cx="254.4" cy="324.8" r="4"/>
			<circle class="st17" cx="254.4" cy="324.8" r="2.2"/>
			<linearGradient id="SVGID_5_" gradientUnits="userSpaceOnUse" x1="254.4224" y1="323.3511" x2="254.4224" y2="326.1964">
				<stop  offset="2.564100e-03" style="stop-color:#E6E6E6"/>
				<stop  offset="0.9974" style="stop-color:#999999"/>
			</linearGradient>
			<circle class="st44" cx="254.4" cy="324.8" r="1.4"/>
			<circle class="st19" cx="254.4" cy="324.8" r="1"/>
			<g>
				<g>
					<circle class="st20" cx="254.5" cy="321.8" r="0.4"/>
					<circle class="st21" cx="254.4" cy="321.7" r="0.4"/>
				</g>
				<g>
					
						<ellipse transform="matrix(0.809 -0.5878 0.5878 0.809 -141.1679 210.099)" class="st20" cx="252.7" cy="322.3" rx="0.4" ry="0.4"/>
					
						<ellipse transform="matrix(0.809 -0.5878 0.5878 0.809 -141.1937 210.0334)" class="st21" cx="252.6" cy="322.3" rx="0.4" ry="0.4"/>
				</g>
				<g>
					
						<ellipse transform="matrix(0.309 -0.9511 0.9511 0.309 -134.0722 462.9885)" class="st20" cx="251.6" cy="323.8" rx="0.4" ry="0.4"/>
					
						<ellipse transform="matrix(0.309 -0.9511 0.9511 0.309 -134.2108 462.9434)" class="st21" cx="251.5" cy="323.8" rx="0.4" ry="0.4"/>
				</g>
				<g>
					
						<ellipse transform="matrix(0.9511 -0.309 0.309 0.9511 -88.3169 93.6669)" class="st20" cx="251.5" cy="325.6" rx="0.4" ry="0.4"/>
					
						<ellipse transform="matrix(0.9511 -0.309 0.309 0.9511 -88.3482 93.6506)" class="st21" cx="251.5" cy="325.7" rx="0.4" ry="0.4"/>
				</g>
				<g>
					
						<ellipse transform="matrix(0.5878 -0.809 0.809 0.5878 -160.5743 339.1917)" class="st20" cx="252.6" cy="327.2" rx="0.4" ry="0.4"/>
					
						<ellipse transform="matrix(0.5878 -0.809 0.809 0.5878 -160.654 339.2713)" class="st21" cx="252.6" cy="327.3" rx="0.4" ry="0.4"/>
				</g>
				<g>
					<circle class="st20" cx="254.3" cy="327.8" r="0.4"/>
					<circle class="st21" cx="254.4" cy="327.9" r="0.4"/>
				</g>
				<g>
					
						<ellipse transform="matrix(0.809 -0.5878 0.5878 0.809 -143.4635 213.0538)" class="st20" cx="256.1" cy="327.3" rx="0.4" ry="0.4"/>
					
						<ellipse transform="matrix(0.809 -0.5878 0.5878 0.809 -143.4369 213.1165)" class="st21" cx="256.2" cy="327.3" rx="0.4" ry="0.4"/>
				</g>
				<g>
					
						<ellipse transform="matrix(0.309 -0.9511 0.9511 0.309 -132.104 469.8088)" class="st20" cx="257.3" cy="325.8" rx="0.4" ry="0.4"/>
					
						<ellipse transform="matrix(0.309 -0.9511 0.9511 0.309 -131.9654 469.8539)" class="st21" cx="257.4" cy="325.7" rx="0.4" ry="0.4"/>
				</g>
				<g>
					
						<ellipse transform="matrix(0.9511 -0.309 0.309 0.9511 -87.5156 95.3778)" class="st20" cx="257.3" cy="324" rx="0.4" ry="0.4"/>
					
						<ellipse transform="matrix(0.9511 -0.309 0.309 0.9511 -87.4704 95.3736)" class="st21" cx="257.4" cy="323.8" rx="0.4" ry="0.4"/>
				</g>
				<g>
					
						<ellipse transform="matrix(0.5878 -0.809 0.809 0.5878 -155.1903 340.2365)" class="st20" cx="256.3" cy="322.4" rx="0.4" ry="0.4"/>
					
						<ellipse transform="matrix(0.5878 -0.809 0.809 0.5878 -155.1107 340.1569)" class="st21" cx="256.2" cy="322.3" rx="0.4" ry="0.4"/>
				</g>
			</g>
		</g>
		<path class="st10" d="M279.5,317.6c1.1,1.2,1.3,1.2,1,2.6c-0.5,1.6,1.4,2.2,2.3,1.2c0.3-0.4,0.2-0.7,0-1c-0.3-0.4,0.2-0.5,0.4-0.1
			c0.3,0.4,0.6,0.7,0.1,1.4c-1.2,1.7-3,1.4-3.6,0.2c-0.2-0.5-0.3-0.9-0.3-1.5c0.1-0.4,0.2-1.1,0-1.2c0-0.1-0.3-0.7-0.4-0.7
			L279.5,317.6z"/>
		<g>
			<linearGradient id="SVGID_6_" gradientUnits="userSpaceOnUse" x1="231.524" y1="297.0732" x2="231.524" y2="309.5785">
				<stop  offset="0.4051" style="stop-color:#4D4D4D"/>
				<stop  offset="0.579" style="stop-color:#1A1A1A"/>
			</linearGradient>
			<circle class="st45" cx="231.5" cy="303.6" r="6.4"/>
			<circle class="st14" cx="231.5" cy="303.6" r="5.6"/>
			<circle class="st15" cx="231.5" cy="303.6" r="3.3"/>
			<circle class="st7" cx="231.5" cy="303.6" r="3"/>
			<circle class="st16" cx="231.5" cy="303.6" r="2.6"/>
			<circle class="st17" cx="231.5" cy="303.6" r="1.4"/>
			<linearGradient id="SVGID_7_" gradientUnits="userSpaceOnUse" x1="231.524" y1="302.6555" x2="231.524" y2="304.4877">
				<stop  offset="2.564100e-03" style="stop-color:#E6E6E6"/>
				<stop  offset="0.9974" style="stop-color:#999999"/>
			</linearGradient>
			<circle class="st46" cx="231.5" cy="303.6" r="0.9"/>
			<circle class="st19" cx="231.5" cy="303.6" r="0.7"/>
			<g>
				
					<ellipse transform="matrix(0.8604 -0.5096 0.5096 0.8604 -121.6319 159.6659)" class="st47" cx="230.6" cy="301.8" rx="0.3" ry="0.3"/>
				
					<ellipse transform="matrix(0.9758 -0.2188 0.2188 0.9758 -60.9547 57.6244)" class="st47" cx="229.7" cy="304" rx="0.3" ry="0.3"/>
				
					<ellipse transform="matrix(9.342306e-02 -0.9956 0.9956 9.342306e-02 -94.398 507.4246)" class="st47" cx="231.4" cy="305.5" rx="0.3" ry="0.3"/>
				
					<ellipse transform="matrix(0.3965 -0.918 0.918 0.3965 -138.5096 397.996)" class="st47" cx="233.5" cy="304.3" rx="0.3" ry="0.3"/>
				
					<ellipse transform="matrix(0.6608 -0.7506 0.7506 0.6608 -147.694 277.3033)" class="st47" cx="232.9" cy="302.1" rx="0.3" ry="0.3"/>
			</g>
		</g>
		<path class="st28" d="M283.8,321.8l0,1.2l-1.5-1.6c-0.1-0.1-0.1-0.3,0-0.4l0.2-0.2c0.1-0.1,0.3-0.1,0.4,0L283.8,321.8z"/>
		<path class="st35" d="M261.8,310c-0.6-0.3-1.2-0.5-1.9-0.5h-33.6l-0.3-0.5v1.3h36.2L261.8,310z"/>
		<path class="st17" d="M270.6,322.3c0,0.6,0.5,1,1,1h1.3c0,0,0-5.8,0-5.8h-1.3c-0.6,0-1,0.5-1,1V322.3z"/>
		<path class="st48" d="M272.2,323.1h0.6c0.3,0,0.5-0.2,0.5-0.5v-4.4c0-0.3-0.2-0.5-0.5-0.5h-0.6c-0.7,0-1.3,0.6-1.3,1.3v2.7
			C270.9,322.6,271.4,323.1,272.2,323.1z"/>
		<path class="st49" d="M272.3,322.6c-0.6,0-1-0.5-1-1v-3.3c0-0.1,0-0.2,0.1-0.3c-0.3,0.2-0.5,0.5-0.5,0.9v3.3c0,0.6,0.5,1,1,1h1
			c0.2,0,0.4-0.2,0.4-0.4v-0.1H272.3z"/>
		<g>
			
				<rect x="164.6" y="297.5" transform="matrix(0.787 -0.617 0.617 0.787 -147.9485 166.942)" class="st22" width="6.3" height="0.4"/>
		</g>
		<g>
			
				<rect x="165.2" y="298.8" transform="matrix(0.9677 -0.2523 0.2523 0.9677 -69.9926 52.0163)" class="st22" width="5.3" height="0.4"/>
		</g>
		<path class="st16" d="M172.9,299.7c0,0.4-0.3,0.8-0.8,0.8h-1.3c-0.8,0-1.4-0.6-1.4-1.4v-3.4c0-1,0.6-1.4,1.4-1.4h1.3
			c0.4,0,0.8,0.3,0.8,0.8V299.7z"/>
		<path class="st50" d="M172.7,299.7h-1.5c-0.7,0-1.2-0.5-1.2-1.2v-3.7c0-0.1,0-0.1,0-0.2c-0.3,0.2-0.5,0.6-0.5,1v3.7
			c0,0.7,0.5,1.2,1.2,1.2h1.5c0.4,0,0.7-0.3,0.7-0.7v-0.1C172.8,299.7,172.7,299.7,172.7,299.7z"/>
		<polygon class="st11" points="261.7,282.6 261.4,283.8 265.1,283.2 266.1,285.9 266.9,285.7 266.8,281.5 		"/>
		<path class="st10" d="M268.7,288.3c0.4-0.1,0.6-0.5,0.5-0.9l-1.2-6.3c-0.1-0.5-0.4-1-0.9-1.3c-0.5-0.3-1-0.3-1.5-0.2l-4.1,1.2
			c-0.3,0.1-0.5,0.3-0.6,0.5s-0.2,0.5-0.1,0.8l0.5,1.7l4.1-1.2l1.9,5.2c0.1,0.4,0.6,0.6,1,0.5L268.7,288.3z"/>
		<path class="st51" d="M210.1,301.7c1.6,0,3-1.3,3-3c0-0.5-0.1-1-0.4-1.5l-4,1.1l-0.9-1.6c-0.4,0.5-0.7,1.2-0.7,1.9
			C207.1,300.3,208.4,301.7,210.1,301.7z"/>
		<g>
			<circle class="st8" cx="210.1" cy="297.9" r="3"/>
			<circle class="st16" cx="210.1" cy="297.9" r="2.7"/>
			<circle class="st30" cx="210.1" cy="297.9" r="1.2"/>
		</g>
		<circle class="st11" cx="266.4" cy="280.9" r="0.6"/>
		<circle class="st52" cx="266.4" cy="280.9" r="0.5"/>
		
			<ellipse transform="matrix(0.7065 -0.7077 0.7077 0.7065 -143.1129 291.2629)" class="st10" cx="279.6" cy="318.2" rx="1" ry="1"/>
		<g>
			
				<rect x="273.6" y="286.5" transform="matrix(0.938 -0.3466 0.3466 0.938 -87.9862 113.6615)" class="st10" width="0.4" height="32.7"/>
		</g>
		<g>
			
				<rect x="209.5" y="289" transform="matrix(0.9594 -0.2819 0.2819 0.9594 -71.941 78.364)" class="st10" width="53.8" height="0.4"/>
		</g>
	</g>
</g>
</svg>
