<?xml version="1.0" encoding="utf-8"?>
<!-- Generator: Adobe Illustrator 21.0.1, SVG Export Plug-In . SVG Version: 6.00 Build 0)  -->
<svg version="1.1" id="Layer_1" xmlns="http://www.w3.org/2000/svg" xmlns:xlink="http://www.w3.org/1999/xlink" x="0px" y="0px"
	 viewBox="0 0 400 400" style="enable-background:new 0 0 400 400;" xml:space="preserve">
<style type="text/css">
	.st0{fill:none;}
	.st1{fill:#CCC9E0;}
	.st2{fill:#9798C4;}
	.st3{fill:#3F464E;}
	.st4{fill:url(#SVGID_1_);}
	.st5{fill:#616A72;}
	.st6{fill:#828382;}
	.st7{fill:#A8A8A8;}
	.st8{fill:#FFFFFF;}
	.st9{fill:#DBDBDB;}
	.st10{fill:#FDDE47;}
	.st11{fill:#179A48;}
	.st12{font-family:'NexaBold';}
	.st13{font-size:7.2588px;}
</style>
<g>
	<g>
		<g>
			<path class="st0" d="M24.5,203.4h0.2c0-1,0-2.1,0-3.1c0-0.7,0-1.3,0-2c-0.1,0.2-0.3,0.3-0.6,0.3h0.4V203.4z"/>
			<path class="st1" d="M301,242.5l0.1-0.2c-0.1-0.1-0.1-0.2-0.2-0.3l-17.3,6.4c0.9,2.4,2.3,4.7,4.1,6.5L301,242.5z"/>
			<path class="st1" d="M301.6,242.8c-0.1,0-0.1-0.1-0.2-0.1l-8.8,16.2c0.6,0.4,1.3,0.7,2,1L301.6,242.8z"/>
			<path class="st1" d="M303.9,241.9l5,2.3l-0.1-2.5l-4.8-0.2C304,241.6,303.9,241.8,303.9,241.9z"/>
			<path class="st1" d="M292.2,258.6l8.3-15.4l-12.7,11.9C289.1,256.5,290.6,257.6,292.2,258.6z"/>
			<path class="st1" d="M282.3,241.3c0,2.4,0.4,4.7,1.2,6.8l17.3-6.4c0-0.1-0.1-0.2-0.1-0.3l-18.4-0.6
				C282.3,241,282.3,241.2,282.3,241.3z"/>
			<path class="st1" d="M303.7,242.3l0.3,0.6l5.1,5.4l-0.2-3.8l-5.1-2.4C303.7,242.2,303.7,242.2,303.7,242.3z"/>
			<path class="st1" d="M302.3,239.7l0.6-18.4c-0.2,0-0.3,0-0.5,0c-2.3,0-4.5,0.4-6.5,1.1l6.1,17.4
				C302.1,239.7,302.2,239.7,302.3,239.7z"/>
			<polygon class="st1" points="309.3,252.6 309.1,248.7 304.5,243.8 			"/>
			<path class="st1" d="M302.4,261.4c2.3,0,4.5-0.4,6.5-1.1l-6.1-17.4c-0.1,0-0.2,0-0.3,0.1l-0.6,18.4
				C302,261.4,302.2,261.4,302.4,261.4z"/>
			<path class="st1" d="M295.6,222.5c-2.5,0.9-4.9,2.3-6.8,4.1l12.6,13.4c0.1-0.1,0.2-0.2,0.3-0.2L295.6,222.5z"/>
			<path class="st1" d="M309.7,261.7l-0.1-1.3c-0.1,0-0.2,0.1-0.3,0.1L309.7,261.7z"/>
			<path class="st1" d="M303,242.8l6.1,17.4c0.2-0.1,0.3-0.1,0.5-0.2l-0.3-6.2l-6.1-11.2C303.2,242.7,303.1,242.8,303,242.8z"/>
			<path class="st1" d="M24.7,198.2c0,0.7,0,1.3,0,2c0,1,0,2.1,0,3.1h1.4l1,2.7h6.8v4.1h17.7v2.7h2.2v2.1h-1v63.7h8.5v-45.4h0.8V230
				h1.6v-11.2h0.6V230h1.3v-8.9h0.6v8.9h2.7v3.4h3.4v11.8h6.3v0.8h-0.8v2.4h4.2v-36.8h-0.6v-0.9h4.3v-5.7h-0.5V204h3.9v-3.3h-0.6
				V200h1.9v-3.1H92v-6.2h0.2h0.2h0.2v6.2h0.7v-11h0.2h0.2H94v11h0.2h1.6v3.1h1.7v0.7h-0.4v3.3h3.9v0.9h-0.5v5.7h4.3v0.9h-0.6v48.1
				h13v6.7h4.7v-35.6h-2.7v-0.9h2.7v-1.6h3.5v-2.6h16.8v-30.5h4v-24.4h7.7v-13.3h1.1v13.3h2.4v-10.6h1.1v10.6h12.1v14.5h2.2v9.9h6.2
				v36.9h2.4v8.5l3.5-0.9v-1.9h3.1v1.2l5.6-1.4v-2.2h3.1v1.5l5.2-1.3v-10.6h1.4v-18.5h6.6v-7h3.6v-5.9h1.3v-10.1h0.3v10.1h1.3v5.9
				h3.6v7h6.7v18.5h1.3v57.9h6.2v-36.1h-1.5V246h17.3v-7.5h-1.9v-0.9h-1v-2.3h4.6v-2.6h-0.6V232h10.1v0.7h-0.6v2.6h13.3
				c0.4-2.2,1.1-4.3,2-6.3l-2.2-1c-0.4,0.8-1.2,1.4-2.2,1.4c-1.3,0-2.4-1.1-2.4-2.4c0-1.3,1.1-2.4,2.4-2.4c1.3,0,2.4,1.1,2.4,2.4
				c0,0.3,0,0.5-0.1,0.8l2.2,1c1.4-3.1,3.4-5.9,5.9-8.4c0.2-0.2,0.4-0.4,0.6-0.6l-1.7-1.9c-0.4,0.4-1,0.6-1.6,0.6
				c-1.3,0-2.4-1.1-2.4-2.4c0-1.3,1.1-2.4,2.4-2.4c1.3,0,2.4,1.1,2.4,2.4c0,0.6-0.2,1.2-0.6,1.6l1.7,1.9c3-2.8,6.4-4.8,10.1-6.2
				l-1-2.7c-0.2,0.1-0.4,0.1-0.7,0.1c-1.3,0-2.4-1.1-2.4-2.4c0-1.3,1.1-2.4,2.4-2.4c1.3,0,2.4,1.1,2.4,2.4c0,1-0.6,1.9-1.5,2.2
				l1,2.7c3.1-1.1,6.3-1.6,9.7-1.6c0.3,0,0.6,0,0.8,0l0.1-3.4c-1.2-0.2-2.1-1.2-2.1-2.4c0-1.3,1.1-2.4,2.4-2.4s2.4,1.1,2.4,2.4
				c0,1.3-1.1,2.4-2.4,2.4c0,0-0.1,0-0.1,0l-0.1,3.4c1.4,0,2.7,0.2,4,0.4l-1.2-27.6l44.3,9.2v48.4h7.7v-24.9H372v-9.9h0.8v9.9h1.5
				v-18.4h0.8v18.4h1.8v-13.2h0.8v13.2h2.3v11.3c1.5-9.2,2.2-18.7,2.2-28.3c0-98.7-80-178.8-178.8-178.8
				c-97.8,0-177.3,78.6-178.7,176.1c0.1,0.1,0.1,0.2,0.1,0.3C24.8,198,24.7,198.1,24.7,198.2z"/>
			<path class="st1" d="M287.4,255.2c-1.8-1.9-3.2-4.2-4.1-6.7l-7.5,2.7v0.9c1.3,3.2,3.2,6.1,5.6,8.7L287.4,255.2z"/>
			<path class="st1" d="M282.4,240.5l18.4,0.6c0-0.1,0-0.3,0.1-0.4l-16.7-7.7C283.1,235.3,282.5,237.9,282.4,240.5z"/>
			<path class="st1" d="M275.8,250.3v0.7l7.4-2.7c-0.8-2.2-1.2-4.5-1.2-6.9c0-0.2,0-0.4,0-0.5l-6.2-0.2v8.9h1.1v0.8H275.8z"/>
			<path class="st1" d="M301.2,240.2l-12.6-13.4c-1.8,1.7-3.3,3.7-4.3,6l16.7,7.7C301,240.4,301.1,240.3,301.2,240.2z"/>
			<path class="st1" d="M275.8,261.7v1.2c0.4-0.3,0.9-0.5,1.5-0.5c0.6,0,1.2,0.3,1.7,0.7l1.8-1.7c-2-2.2-3.7-4.6-5-7.3v6.8h1.1v0.8
				H275.8z"/>
			<path class="st1" d="M288.7,266.6v-0.4l-0.2,0.3C288.6,266.5,288.6,266.5,288.7,266.6z"/>
			<path class="st1" d="M287.8,267.9h0.9v-0.4c-0.2-0.1-0.4-0.2-0.5-0.3L287.8,267.9z"/>
			<path class="st1" d="M287.6,255.4l-6,5.7c0.2,0.2,0.4,0.4,0.6,0.6c1.8,1.8,3.8,3.4,6,4.6l0.6-1.2v-2.5h1.4l2-3.6
				C290.4,258,288.9,256.8,287.6,255.4z"/>
			<path class="st1" d="M280.9,261.6l-1.8,1.7c0.3,0.4,0.6,1,0.6,1.5c0,1.3-1.1,2.4-2.4,2.4c-0.6,0-1.1-0.2-1.5-0.5v5.6h1.1v0.8
				h-1.1v10.6h1.1v0.8h-1.1v3.3h0.5l6.9-12.8v-5.3h-1v-2h4.9l0.5-1c-2.2-1.3-4.3-2.9-6.2-4.7C281.3,262,281.1,261.8,280.9,261.6z"/>
			<polygon class="st1" points="283.2,287.9 283.2,276.3 276.9,287.9 			"/>
			<path class="st1" d="M302.4,261.8c-0.2,0-0.4,0-0.5,0l-0.2,6.2h1.2v-5.3h6.8l-0.7-1.9C307,261.4,304.7,261.8,302.4,261.8z"/>
			<path class="st1" d="M301.9,242.9l-7,17c2.1,0.8,4.3,1.3,6.7,1.4l0.6-18.4C302.1,242.9,302,242.9,301.9,242.9z"/>
			<path class="st1" d="M291.8,267.4v0.5h2.8v-5.3h2.8v5.3h4l0.2-6.2c-2.4-0.1-4.7-0.6-6.8-1.5L291.8,267.4z"/>
			<path class="st1" d="M291.8,266.7l2.7-6.6c-0.7-0.3-1.4-0.6-2-1l-1.8,3.4h1.1V266.7z"/>
			<path class="st1" d="M302.6,239.7c0.1,0,0.2,0,0.3,0.1l5.3-12.9l-0.2-4.9c-1.5-0.4-3.1-0.7-4.8-0.8L302.6,239.7z"/>
			<path class="st1" d="M304,241.2l4.8,0.2l-0.1-2.3l-4.8,1.8C304,241,304,241.1,304,241.2z"/>
			<path class="st1" d="M307.9,221.7l-0.4-8.6c-1.3-0.2-2.7-0.4-4.1-0.4l-0.3,8.3C304.8,221,306.4,221.2,307.9,221.7z"/>
			<path class="st1" d="M303.5,240.1l5.1-4.7l-0.3-7.8l-5.1,12.3C303.2,240,303.4,240,303.5,240.1z"/>
			<path class="st1" d="M303.8,240.6l4.8-1.8l-0.1-3.1l-4.9,4.6C303.7,240.4,303.8,240.5,303.8,240.6z"/>
			<path class="st1" d="M295.5,222.1l-2.8-7.8c-3.6,1.3-7,3.3-9.9,6l5.7,6C290.5,224.5,292.9,223,295.5,222.1z"/>
			<path class="st1" d="M288.3,226.5l-5.7-6c-0.2,0.2-0.4,0.4-0.6,0.6c-2.4,2.4-4.3,5.2-5.7,8.1l7.5,3.5
				C285,230.3,286.5,228.3,288.3,226.5z"/>
			<path class="st1" d="M278.7,237.6h-1v0.9h-1.9v1.8l6.2,0.2c0.1-2.7,0.7-5.3,1.8-7.6l-7.5-3.5c-0.9,1.9-1.5,3.9-1.9,5.9h4.4V237.6
				z"/>
			<path class="st1" d="M302.4,220.9c0.2,0,0.4,0,0.5,0l0.3-8.3c-0.3,0-0.5,0-0.8,0c-3.3,0-6.4,0.5-9.4,1.6l2.8,7.8
				C297.8,221.3,300,220.9,302.4,220.9z"/>
			<path class="st2" d="M24.7,198.2c0-0.2,0-0.4,0-0.6c-0.1-0.2-0.3-0.4-0.6-0.4c-0.4,0-0.7,0.3-0.7,0.7c0,0.4,0.3,0.7,0.7,0.7
				C24.4,198.6,24.6,198.4,24.7,198.2z"/>
			<path class="st2" d="M24.8,197.9c0-0.1,0-0.2-0.1-0.3c0,0.2,0,0.4,0,0.6C24.7,198.1,24.8,198,24.8,197.9z"/>
		</g>
		<path class="st2" d="M377.6,217.3v-13.2h-0.8v13.2h-1.8v-18.4h-0.8v18.4h-1.5v-9.9H372v9.9h-13.8v24.9h-7.7v-48.4l-44.3-9.2
			l1.2,27.6c-1.3-0.2-2.7-0.4-4-0.4l0.1-3.4c0,0,0.1,0,0.1,0c1.3,0,2.4-1.1,2.4-2.4c0-1.3-1.1-2.4-2.4-2.4s-2.4,1.1-2.4,2.4
			c0,1.2,0.9,2.2,2.1,2.4l-0.1,3.4c-0.3,0-0.5,0-0.8,0c-3.3,0-6.6,0.6-9.7,1.6l-1-2.7c0.9-0.4,1.5-1.2,1.5-2.2
			c0-1.3-1.1-2.4-2.4-2.4s-2.4,1.1-2.4,2.4c0,1.3,1.1,2.4,2.4,2.4c0.2,0,0.4,0,0.7-0.1l1,2.7c-3.7,1.3-7.2,3.4-10.1,6.2l-1.7-1.9
			c0.4-0.4,0.6-1,0.6-1.6c0-1.3-1.1-2.4-2.4-2.4c-1.3,0-2.4,1.1-2.4,2.4c0,1.3,1.1,2.4,2.4,2.4c0.6,0,1.2-0.2,1.6-0.6l1.7,1.9
			c-0.2,0.2-0.4,0.4-0.6,0.6c-2.5,2.5-4.4,5.3-5.9,8.4l-2.2-1c0.1-0.2,0.1-0.5,0.1-0.8c0-1.3-1.1-2.4-2.4-2.4
			c-1.3,0-2.4,1.1-2.4,2.4c0,1.3,1.1,2.4,2.4,2.4c1,0,1.8-0.6,2.2-1.4l2.2,1c-0.9,2-1.6,4.1-2,6.3h-13.3v-2.6h0.6V232h-10.1v0.7h0.6
			v2.6h-4.6v2.3h1v0.9h1.9v7.5h-17.3v0.6h1.5v36.1h-6.2v-57.9h-1.3v-18.5h-6.7v-7h-3.6v-5.9h-1.3v-10.1h-0.3v10.1h-1.3v5.9h-3.6v7
			H203v18.5h-1.4v10.6l-5.2,1.3v-1.5h-3.1v2.2l-5.6,1.4v-1.2h-3.1v1.9l-3.5,0.9v-8.5h-2.4v-36.9h-6.2v-9.9h-2.2v-14.5h-12.1v-10.6
			h-1.1v10.6h-2.4v-13.3h-1.1v13.3h-7.7v24.4h-4v30.5h-16.8v2.6h-3.5v1.6h-2.7v0.9h2.7v35.6h-4.7v-6.7h-13v-48.1h0.6v-0.9h-4.3v-5.7
			h0.5V204h-3.9v-3.3h0.4V200h-1.7v-3.1h-1.6H94v-11h-0.2h-0.2h-0.2v11h-0.7v-6.2h-0.2h-0.2H92v6.2h-1.9v3.1h-1.9v0.7h0.6v3.3h-3.9
			v0.9h0.5v5.7h-4.3v0.9h0.6v36.8h-4.2V246h0.8v-0.8h-6.3v-11.8h-3.4V230h-2.7v-8.9h-0.6v8.9h-1.3v-11.2h-0.6V230h-1.6v3.4h-0.8
			v45.4h-8.5V215h1v-2.1h-2.2v-2.7H33.9v-4.1h-6.8l-1-2.7h-1.4c0.8,45.4,18.5,86.7,47.1,117.8c2.7,2.9,5.5,5.8,8.4,8.5
			c23.6,22.5,53.3,38.5,86.4,45.5c11.9,2.5,24.2,3.8,36.8,3.8c52.1,0,98.9-22.3,131.6-57.8c23.2-25.3,39.3-57.2,44.9-92.7v-11.3
			H377.6z M309.7,261.7l-0.4-1.1c0.1,0,0.2-0.1,0.3-0.1L309.7,261.7z M309.6,260c-0.2,0.1-0.3,0.1-0.5,0.2l-6.1-17.4
			c0.1,0,0.2-0.1,0.3-0.1l6.1,11.2L309.6,260z M275.8,260.9v-6.8c1.3,2.6,2.9,5.1,5,7.3l-1.8,1.7c-0.4-0.4-1-0.7-1.7-0.7
			c-0.6,0-1.1,0.2-1.5,0.5v-1.2h1.1v-0.8H275.8z M275.8,252.2v-0.9l7.5-2.7c0.9,2.5,2.4,4.8,4.1,6.7l-6,5.7
			C279,258.3,277.1,255.3,275.8,252.2z M275.8,249.5v-8.9l6.2,0.2c0,0.2,0,0.4,0,0.5c0,2.4,0.4,4.8,1.2,6.9l-7.4,2.7v-0.7h1.1v-0.8
			H275.8z M300.9,240.8c0,0.1-0.1,0.2-0.1,0.4l-18.4-0.6c0.1-2.7,0.7-5.2,1.8-7.5L300.9,240.8z M284.2,232.8c1.1-2.3,2.5-4.3,4.3-6
			l12.6,13.4c-0.1,0.1-0.1,0.2-0.2,0.3L284.2,232.8z M300.8,241.4c0,0.1,0,0.2,0.1,0.3l-17.3,6.4c-0.8-2.1-1.2-4.4-1.2-6.8
			c0-0.2,0-0.3,0-0.5L300.8,241.4z M283.6,248.4l17.3-6.4c0,0.1,0.1,0.2,0.2,0.3l-0.1,0.2l-13.3,12.5
			C285.9,253,284.5,250.8,283.6,248.4z M300.6,243.2l-8.3,15.4c-1.6-1-3.1-2.1-4.4-3.5L300.6,243.2z M301.5,242.7
			c0.1,0,0.1,0.1,0.2,0.1l-7,17.1c-0.7-0.3-1.3-0.6-2-1L301.5,242.7z M301.4,240.1l-12.6-13.4c2-1.8,4.3-3.2,6.8-4.1l6.1,17.4
			C301.6,239.9,301.5,240,301.4,240.1z M295.8,222.4c2-0.7,4.2-1.1,6.5-1.1c0.2,0,0.3,0,0.5,0l-0.6,18.4c-0.1,0-0.2,0-0.3,0.1
			L295.8,222.4z M302.5,242.9c0.1,0,0.2,0,0.3-0.1l6.1,17.4c-2,0.7-4.2,1.1-6.5,1.1c-0.2,0-0.3,0-0.5,0L302.5,242.9z M309.3,252.6
			l-4.8-8.8l4.6,4.9L309.3,252.6z M309.1,248.3l-5.1-5.4l-0.3-0.6c0,0,0.1-0.1,0.1-0.1l5.1,2.4L309.1,248.3z M308.9,244.2l-5-2.3
			c0-0.1,0.1-0.2,0.1-0.4l4.8,0.2L308.9,244.2z M308.8,241.4l-4.8-0.2c0-0.1,0-0.2-0.1-0.3l4.8-1.8L308.8,241.4z M308.7,238.9
			l-4.8,1.8c-0.1-0.1-0.1-0.2-0.2-0.3l4.9-4.6L308.7,238.9z M308.5,235.4l-5.1,4.7c-0.1-0.1-0.2-0.2-0.3-0.2l5.1-12.3L308.5,235.4z
			 M308.1,226.9l-5.3,12.9c-0.1,0-0.2-0.1-0.3-0.1l0.6-18.4c1.6,0.1,3.2,0.3,4.8,0.8L308.1,226.9z M303.4,212.6
			c1.4,0.1,2.7,0.2,4.1,0.4l0.4,8.6c-1.5-0.4-3.1-0.7-4.7-0.7L303.4,212.6z M302.4,212.6c0.3,0,0.5,0,0.8,0l-0.3,8.3
			c-0.2,0-0.4,0-0.5,0c-2.3,0-4.6,0.4-6.7,1.1l-2.8-7.8C295.9,213.2,299.1,212.6,302.4,212.6z M292.7,214.3l2.8,7.8
			c-2.6,0.9-5,2.4-7,4.2l-5.7-6C285.7,217.6,289.1,215.6,292.7,214.3z M282.1,221c0.2-0.2,0.4-0.4,0.6-0.6l5.7,6
			c-1.8,1.7-3.3,3.8-4.4,6.1l-7.5-3.5C277.8,226.2,279.7,223.4,282.1,221z M276.2,229.4l7.5,3.5c-1.1,2.3-1.7,4.9-1.8,7.6l-6.2-0.2
			v-1.8h1.9v-0.9h1v-2.3h-4.4C274.7,233.3,275.4,231.3,276.2,229.4z M283.2,287.9h-6.3l6.3-11.6V287.9z M287.2,267.9h-4.9v2h1v5.3
			l-6.9,12.8h-0.5v-3.3h1.1v-0.8h-1.1v-10.6h1.1v-0.8h-1.1v-5.6c0.4,0.3,0.9,0.5,1.5,0.5c1.3,0,2.4-1.1,2.4-2.4
			c0-0.6-0.2-1.1-0.6-1.5l1.8-1.7c0.2,0.2,0.4,0.4,0.6,0.6c1.9,1.9,3.9,3.5,6.2,4.7L287.2,267.9z M288.7,267.9h-0.9l0.4-0.7
			c0.2,0.1,0.4,0.2,0.5,0.3V267.9z M288.7,266.6c-0.1,0-0.1-0.1-0.2-0.1l0.2-0.3V266.6z M288.7,262.6v2.5l-0.6,1.2
			c-2.2-1.2-4.2-2.8-6-4.6c-0.2-0.2-0.4-0.4-0.6-0.6l6-5.7c1.3,1.4,2.8,2.6,4.5,3.6l-2,3.6H288.7z M292.5,259.2c0.6,0.4,1.3,0.7,2,1
			l-2.7,6.6v-4.2h-1.1L292.5,259.2z M301.4,267.9h-4v-5.3h-2.8v5.3h-2.8v-0.5l2.9-7.2c2.1,0.9,4.4,1.4,6.8,1.5L301.4,267.9z
			 M294.9,259.9l7-17c0.1,0,0.2,0.1,0.3,0.1l-0.6,18.4C299.2,261.3,297,260.8,294.9,259.9z M302.9,262.6v5.3h-1.2l0.2-6.2
			c0.2,0,0.4,0,0.5,0c2.3,0,4.6-0.4,6.7-1.1l0.7,1.9H302.9z"/>
	</g>
	<g>
		<path class="st3" d="M241.3,96.6H172c-8.3,0-15.1,6.8-15.1,15.1v180.4c0,8.3,6.8,15.1,15.1,15.1h69.3c8.3,0,15.1-6.8,15.1-15.1
			V111.8C256.4,103.4,249.6,96.6,241.3,96.6z"/>
		<linearGradient id="SVGID_1_" gradientUnits="userSpaceOnUse" x1="206.4803" y1="89.3014" x2="206.4803" y2="315.4961">
			<stop  offset="0" style="stop-color:#7C76AF"/>
			<stop  offset="0.5" style="stop-color:#6561A2"/>
			<stop  offset="1" style="stop-color:#47428F"/>
		</linearGradient>
		<rect x="163.1" y="125.4" class="st4" width="86.8" height="154"/>
		<path class="st5" d="M213.1,111.2h-13.2c-1.2,0-2.1,0.9-2.1,2.1c0,1.2,1,2.1,2.1,2.1h13.2c1.2,0,2.1-1,2.1-2.1
			C215.2,112.1,214.2,111.2,213.1,111.2z"/>
		<path class="st5" d="M214.9,290.5h-16.8c-1.5,0-2.7,1.4-2.7,3.1c0,1.7,1.2,3.1,2.7,3.1h16.8c1.5,0,2.7-1.4,2.7-3.1
			C217.6,291.9,216.4,290.5,214.9,290.5z"/>
		<path class="st6" d="M231.8,202h-49.9c-6.6,0-12,5.4-12,12v33.5c0,6.6,5.4,12,12,12h49.9c6.6,0,12-5.4,12-12V214
			C243.8,207.4,238.4,202,231.8,202z"/>
		<path class="st7" d="M231.8,205.4h-49.9c-6.6,0-12,5.4-12,12v33.5c0,6.6,5.4,12,12,12h49.9c6.6,0,12-5.4,12-12v-33.5
			C243.8,210.8,238.4,205.4,231.8,205.4z"/>
		<path class="st8" d="M231.8,210h-49.9c-6.6,0-12,5.4-12,12v33.5c0,6.6,5.4,12,12,12h49.9c6.6,0,12-5.4,12-12V222
			C243.8,215.4,238.4,210,231.8,210z"/>
		<circle class="st9" cx="185.5" cy="227.1" r="9.7"/>
		<path class="st9" d="M236.7,221.6h-36.9c-1.1,0-2,0.9-2,2v0.2c0,1.1,0.9,2,2,2h36.9c1.1,0,2-0.9,2-2v-0.2
			C238.8,222.5,237.8,221.6,236.7,221.6z"/>
		<polygon class="st10" points="204.1,231.9 202.5,232.7 202.8,230.9 201.5,229.7 203.3,229.4 204.1,227.8 204.9,229.4 206.6,229.7 
			205.3,230.9 205.6,232.7 		"/>
		<polygon class="st10" points="211,231.9 209.4,232.7 209.7,230.9 208.5,229.7 210.2,229.4 211,227.8 211.8,229.4 213.6,229.7 
			212.3,230.9 212.6,232.7 		"/>
		<polygon class="st10" points="218.1,231.9 216.5,232.7 216.8,230.9 215.5,229.7 217.3,229.4 218.1,227.8 218.9,229.4 220.6,229.7 
			219.4,230.9 219.7,232.7 		"/>
		<polygon class="st10" points="225.4,231.9 223.8,232.7 224.1,230.9 222.9,229.7 224.6,229.4 225.4,227.8 226.2,229.4 228,229.7 
			226.7,230.9 227,232.7 		"/>
		<polygon class="st10" points="232.5,231.9 230.9,232.7 231.2,230.9 229.9,229.7 231.7,229.4 232.5,227.8 233.3,229.4 235,229.7 
			233.7,230.9 234,232.7 		"/>
		<path class="st11" d="M225.9,245.5h-35.9c-4.3,0-7.7,3.5-7.7,7.7v0.9c0,4.3,3.5,7.7,7.7,7.7h35.9c4.3,0,7.7-3.5,7.7-7.7v-0.9
			C233.7,249,230.2,245.5,225.9,245.5z"/>
		<text transform="matrix(1 0 0 1 195.8892 256.5312)" class="st8 st12 st13">confirm</text>
		<path class="st8" d="M238.5,147h-61.8c-1.6,0-2.8-1.3-2.8-2.8v-0.3c0-1.6,1.3-2.8,2.8-2.8h61.8c1.6,0,2.8,1.3,2.8,2.8v0.3
			C241.4,145.7,240.1,147,238.5,147z"/>
		<path class="st8" d="M228.6,159.5h-41.9c-1.6,0-2.8-1.3-2.8-2.8v-0.3c0-1.6,1.3-2.8,2.8-2.8h41.9c1.6,0,2.8,1.3,2.8,2.8v0.3
			C231.4,158.2,230.1,159.5,228.6,159.5z"/>
	</g>
</g>
</svg>
