<?xml version="1.0" encoding="utf-8"?>
<!-- Generator: Adobe Illustrator 21.0.1, SVG Export Plug-In . SVG Version: 6.00 Build 0)  -->
<svg version="1.1" id="Layer_1" xmlns="http://www.w3.org/2000/svg" xmlns:xlink="http://www.w3.org/1999/xlink" x="0px" y="0px"
	 viewBox="0 0 362 250" style="enable-background:new 0 0 362 250;" xml:space="preserve">
<style type="text/css">
	.st0{fill:#F4F5F7;}
	.st1{fill:#EAECF4;}
	.st2{fill:#D8DBEA;}
	.st3{fill:#FFFFFF;}
	.st4{fill:none;stroke:#000000;stroke-width:2;}
	.st5{fill:none;stroke:#000000;stroke-width:1.723;}
	.st6{fill:#D19818;}
	.st7{fill:#FDBC18;}
	.st8{fill:#F9F9F9;}
</style>
<title>Artwork</title>
<desc>Created with Sketch.</desc>
<g id="Page-1">
	<g id="_x33__x5F_Onboarding-_x23_2" transform="translate(-6.000000, -144.000000)">
		<g id="Artwork" transform="translate(7.000000, 144.000000)">
			<path id="Fill-1" class="st0" d="M54.3,128.4C78.6,71.3,59.9-0.3,139.6,0c64,0.2,94.6,15.2,139.5,40.2
				c43.5,24.1,44.7,93.2-16.4,155.4s-107,60.5-129.4,46.2C110.8,227.6,37,169.2,54.3,128.4"/>
			<g id="Group-3" transform="translate(23.946360, 130.268199)">
				<polygon id="Fill-1_1_" class="st1" points="0,92.7 40,92.7 40,0 0,0 				"/>
				<polygon id="Fill-2" class="st2" points="103.6,92.7 143.7,92.7 143.7,62.2 103.6,62.2 				"/>
				<polygon id="Fill-3" class="st2" points="17.7,92.7 57.7,92.7 57.7,37.5 17.7,37.5 				"/>
				<polygon id="Fill-4" class="st3" points="35.3,92.7 76.5,92.7 76.5,15.3 35.3,15.3 				"/>
				<polygon id="Stroke-5" class="st4" points="35.3,93.9 76.5,93.9 76.5,15.3 35.3,15.3 				"/>
				<polygon id="Fill-6" class="st3" points="87.1,93.9 121.3,93.9 121.3,30.5 87.1,30.5 				"/>
				<polygon id="Stroke-7" class="st4" points="87.1,93.9 121.3,93.9 121.3,30.5 87.1,30.5 				"/>
				<polygon id="Fill-8" class="st3" points="63.6,93.9 97.7,93.9 97.7,46.9 63.6,46.9 				"/>
				<polygon id="Stroke-9" class="st5" points="63.6,93.9 97.7,93.9 97.7,46.9 63.6,46.9 				"/>
				<polygon id="Fill-10" class="st3" points="56.5,48.1 103.6,48.1 103.6,42.2 56.5,42.2 				"/>
				<polygon id="Stroke-11" class="st4" points="56.5,48.1 103.6,48.1 103.6,42.2 56.5,42.2 				"/>
				<polygon id="Fill-12" class="st3" points="70.7,61 77.7,61 77.7,54 70.7,54 				"/>
				<polygon id="Stroke-13" class="st4" points="70.7,61 77.7,61 77.7,54 70.7,54 				"/>
				<polygon id="Fill-14" class="st3" points="83.6,61 90.7,61 90.7,54 83.6,54 				"/>
				<polygon id="Stroke-15" class="st4" points="83.6,61 90.7,61 90.7,54 83.6,54 				"/>
				<polygon id="Fill-16" class="st3" points="70.7,73.9 77.7,73.9 77.7,66.9 70.7,66.9 				"/>
				<polygon id="Stroke-17" class="st4" points="70.7,73.9 77.7,73.9 77.7,66.9 70.7,66.9 				"/>
				<polygon id="Fill-18" class="st3" points="83.6,73.9 90.7,73.9 90.7,66.9 83.6,66.9 				"/>
				<polygon id="Stroke-19" class="st4" points="83.6,73.9 90.7,73.9 90.7,66.9 83.6,66.9 				"/>
				<polygon id="Fill-20" class="st3" points="70.7,85.7 77.7,85.7 77.7,78.6 70.7,78.6 				"/>
				<polygon id="Stroke-21" class="st4" points="70.7,85.7 77.7,85.7 77.7,78.6 70.7,78.6 				"/>
				<polygon id="Fill-22" class="st3" points="83.6,85.7 90.7,85.7 90.7,78.6 83.6,78.6 				"/>
				<polygon id="Stroke-23" class="st4" points="83.6,85.7 90.7,85.7 90.7,78.6 83.6,78.6 				"/>
				<path id="Fill-24" class="st3" d="M35.3,28.7h23.6H35.3z"/>
				<path id="Stroke-25" class="st4" d="M35.3,28.7h23.6"/>
				<path id="Fill-26" class="st3" d="M47.7,28.2v-8.2V28.2z"/>
				<path id="Stroke-27" class="st4" d="M47.7,19.9v8.2"/>
				<path id="Fill-28" class="st3" d="M67.1,28.7h9.4H67.1z"/>
				<path id="Stroke-29" class="st4" d="M67.1,28.7h9.4"/>
				<polygon id="Fill-30" class="st3" points="50.1,37 35.3,37 68.3,37 				"/>
				<polyline id="Stroke-31" class="st4" points="35.3,37 50.1,37 68.3,37 				"/>
				<path id="Fill-32" class="st3" d="M50,42.2l0.2-5.9L50,42.2z"/>
				<path id="Stroke-33" class="st4" d="M50,42.2l0.2-5.9"/>
				<path id="Fill-34" class="st3" d="M55.4,56.9h7.1H55.4z"/>
				<path id="Stroke-35" class="st4" d="M62.4,56.9h-7.1"/>
				<polygon id="Fill-36" class="st3" points="44.2,65.1 35.3,65.1 63.6,65.1 				"/>
				<polyline id="Stroke-37" class="st4" points="35.3,65.1 44.2,65.1 63.6,65.1 				"/>
				<path id="Fill-38" class="st3" d="M44.2,69.2v-4.7V69.2z"/>
				<path id="Stroke-39" class="st4" d="M44.2,69.2v-4.7"/>
				<path id="Fill-40" class="st3" d="M45.9,82.7h16.5H45.9z"/>
				<path id="Stroke-41" class="st4" d="M45.9,82.7h16.5"/>
				<path id="Fill-42" class="st3" d="M113.6,93.9v-61V93.9z"/>
				<path id="Stroke-43" class="st4" d="M113.6,32.9v61"/>
				<path id="Fill-44" class="st3" d="M114.2,54.6h4.7H114.2z"/>
				<path id="Stroke-45" class="st4" d="M118.9,54.6h-4.7"/>
				<path id="Fill-46" class="st3" d="M107.2,81.5h7.1H107.2z"/>
				<path id="Stroke-47" class="st4" d="M107.2,81.5h7.1"/>
				<path id="Fill-48" class="st3" d="M101.9,42.2v-9.4V42.2z"/>
				<path id="Stroke-49" class="st4" d="M101.9,32.9v9.4"/>
				<path id="Fill-50" class="st3" d="M101.9,92.7V48.1V92.7z"/>
				<path id="Stroke-51" class="st4" d="M101.9,92.7V48.1"/>
				<path id="Fill-52" class="st3" d="M102.5,60.4h5.9H102.5z"/>
				<path id="Stroke-53" class="st4" d="M108.3,60.4h-5.9"/>
				<path id="Fill-54" class="st3" d="M106.6,30.5V11.7V30.5z"/>
				<path id="Stroke-55" class="st4" d="M106.6,11.7v18.8"/>
			</g>
			<g id="Group-2" transform="translate(191.570881, 128.352490)">
				<polygon id="Fill-56" class="st1" points="58.8,92.3 98.8,92.3 98.8,0 58.8,0 				"/>
				<polygon id="Fill-57" class="st2" points="85.9,92.3 105.9,92.3 105.9,21 85.9,21 				"/>
				<polygon id="Fill-57-Copy" class="st2" points="107.1,95.8 142.4,95.8 142.4,67.8 107.1,67.8 				"/>
				<polygon id="Fill-57-Copy-2" class="st1" points="107.1,68.9 149.4,68.9 149.4,59.6 107.1,59.6 				"/>
				<polygon id="Fill-58" class="st2" points="20,92.3 60,92.3 60,28 20,28 				"/>
				<polygon id="Fill-59" class="st3" points="8.2,95.8 105.9,95.8 105.9,61.9 8.2,61.9 				"/>
				<polygon id="Stroke-60" class="st4" points="8.2,95.8 105.9,95.8 105.9,61.9 8.2,61.9 				"/>
				<polygon id="Fill-61" class="st3" points="0,61.9 114.1,61.9 114.1,52.6 0,52.6 				"/>
				<polygon id="Stroke-62" class="st4" points="0,61.9 114.1,61.9 114.1,52.6 0,52.6 				"/>
				<path id="Fill-63" class="st3" d="M8.2,78.8h22.4H8.2z"/>
				<path id="Stroke-64" class="st4" d="M8.2,78.8h22.4"/>
				<path id="Fill-65" class="st3" d="M83.5,78.8h21.2H83.5z"/>
				<path id="Stroke-66" class="st4" d="M83.5,78.8h21.2"/>
				<path id="Fill-67" class="st3" d="M40,77.7h31.8H40z"/>
				<path id="Stroke-68" class="st4" d="M40,77.7h31.8"/>
				<path id="Fill-69" class="st3" d="M47.7,91.1V74.8V91.1z"/>
				<path id="Stroke-70" class="st4" d="M47.7,74.8v16.4"/>
				<path id="Fill-71" class="st3" d="M38.8,87h35.3H38.8z"/>
				<path id="Stroke-72" class="st4" d="M74.1,87H38.8"/>
				<path id="Fill-73" class="st3" d="M88.8,87.6V68.9V87.6z"/>
				<path id="Stroke-74" class="st4" d="M88.8,68.9v18.7"/>
			</g>
			<g id="Group-90" transform="translate(0.000000, 22.988506)">
				<g id="Group-78" transform="translate(0.000000, 199.992074)">
					<path id="Stroke-77" class="st4" d="M0,0.9c4.4,0.2,4.1,0.2,360.2,0"/>
				</g>
				<g id="Group-81" transform="translate(152.544301, 206.781750)">
					<path id="Fill-79" class="st2" d="M59.4,4.6c0,2.1-13.3,3.8-29.6,3.8S0.2,6.7,0.2,4.6c0-2.1,13.3-3.8,29.6-3.8
						S59.4,2.5,59.4,4.6"/>
				</g>
				<path id="Fill-82" class="st6" d="M181.1,117.3c-21.1,0-38.3-16.8-38.3-37.5s17.1-37.5,38.3-37.5c21.1,0,38.3,16.8,38.3,37.5
					S202.3,117.3,181.1,117.3 M181.1,0.7c-43.4-1.2-79.6,32.3-80.8,74.8c0,1.2,0,2.4,0,3.6c0,65.6,74.9,126.4,78,128.9
					c1.6,1.3,3.9,1.3,5.5,0c3.3-2.9,78.1-69.7,78.1-128.9c0.8-42.5-33.7-77.6-77.1-78.4C183.6,0.6,182.4,0.6,181.1,0.7"/>
				<path id="Fill-84" class="st7" d="M181.1,117.3c-21.1,0-38.3-16.8-38.3-37.5s17.1-37.5,38.3-37.5c21.1,0,38.3,16.8,38.3,37.5
					S202.3,117.3,181.1,117.3 M181.1,1.8c-43.4-1.2-66.7,33.7-67.9,76.2c0,1.2,0,2.4,0,3.6c0,65.6,62,123.8,65.1,126.3
					c1.6,1.3,3.9,1.3,5.5,0c3.3-2.9,78.1-69.7,78.1-128.9c0.8-42.5-33.7-76.5-77.1-77.3C183.6,1.7,182.4,1.7,181.1,1.8"/>
				<path id="Fill-86" class="st6" d="M219.4,79.8c0,21.4-18.6,38.8-41.5,38.8s-41.5-17.4-41.5-38.8S155.1,41,178,41
					S219.4,58.4,219.4,79.8"/>
				<path id="Fill-88" class="st8" d="M219.4,79.8c0,20.7-17.1,37.5-38.3,37.5s-38.3-16.8-38.3-37.5s17.1-37.5,38.3-37.5
					S219.4,59.1,219.4,79.8"/>
			</g>
		</g>
	</g>
</g>
</svg>
