<?xml version="1.0" encoding="utf-8"?>
<!-- Generator: Adobe Illustrator 21.0.1, SVG Export Plug-In . SVG Version: 6.00 Build 0)  -->
<svg version="1.1" id="Layer_1" xmlns="http://www.w3.org/2000/svg" xmlns:xlink="http://www.w3.org/1999/xlink" x="0px" y="0px"
	 viewBox="0 0 250 258" style="enable-background:new 0 0 250 258;" xml:space="preserve">
<style type="text/css">
	.st0{fill:#F4F5F7;}
	.st1{fill:#FFFFFF;}
	.st2{fill:none;stroke:#000000;stroke-width:2;}
	.st3{fill:#81C45B;}
	.st4{fill:#FDBC18;}
	.st5{fill:#FFF097;}
	.st6{fill:#D19818;}
</style>
<title>Artwork</title>
<desc>Created with Sketch.</desc>
<g id="Page-1">
	<g id="_x34__x5F_Onboarding-_x23_3" transform="translate(-63.000000, -140.000000)">
		<g id="Artwork" transform="translate(63.000000, 140.000000)">
			<g id="Group-48">
				<g id="Group-3" transform="translate(0.000000, 15.951070)">
					<path id="Fill-1" class="st0" d="M2.5,124.3C25.9,69.3,7.9,0.4,84.6,0.7c61.7,0.2,91.1,14.7,134.4,38.7
						c41.9,23.2,43.1,89.7-15.8,149.7s-103,58.2-124.6,44.5C56.9,219.9-14.2,163.6,2.5,124.3"/>
				</g>
				<path id="Fill-4" class="st1" d="M197,224.2H60.1c-8.8,0-16-7.2-16-16.1v-84.9c0-7.8,6.3-14.1,14-14.1h148.5v105.3
					C206.7,219.8,202.3,224.2,197,224.2"/>
				<path id="Stroke-6" class="st2" d="M197,224.2H60.1c-8.8,0-16-7.2-16-16.1v-84.9c0-7.8,6.3-14.1,14-14.1h148.5v105.3
					C206.7,219.8,202.3,224.2,197,224.2z"/>
				<path id="Fill-8" class="st1" d="M247.7,78.7c-12.7,13-45.4,47.1-55.9,58.1l-95.7-29.2L173,5.9C173,5.9,217.5,61.7,247.7,78.7"
					/>
				<path id="Fill-10" d="M248.3,77.7c-29.7-16.7-74-72-74.4-72.5l-0.8-1L95,107.2l2.2,0.7L173,7.7c2.9,3.5,12.8,15.6,25.2,29
					c13.3,14.3,32.2,33.1,47.7,42.2c-12.8,13.2-41.8,43.4-55.3,57.4l2.4,0.7c14.2-14.9,43.6-45.4,55.5-57.6l1.1-1.1L248.3,77.7z"/>
				<path id="Fill-12" class="st1" d="M222.8,85.9c-7.9,7.4-34.5,36.8-43.8,47l-71-21.7l59.9-78.4c0,0,0,0,0,0c0,0,0.1,0.1,0.1,0.1
					C170.7,35.9,213.4,83.3,222.8,85.9"/>
				<path id="Fill-14" d="M223.1,84.7l-0.1,0c-1.7-0.5-4.5-2.5-8-5.5c-6-5.1-14.1-13-21.9-21.1c0,0-0.1-0.1-0.1-0.1
					c-9.7-10-19-20.2-24.1-25.8l-0.7-1.4l-61.3,80.2l2.2,0.7l58.8-77c5.8,6.4,41.2,45.5,52.8,51.7c-9.2,9-33.5,35.8-42.9,46.2
					l2.3,0.7c10.4-11.5,35.7-39.3,43.3-46.5l1.5-1.5L223.1,84.7z"/>
				<path id="Fill-16" class="st3" d="M225.8,80.9c-5.8-4-31-28.8-53.5-51.8l-3.3-6.8l-5.3,6.9l-61.3,80.2l5.6,1.7l59.9-78.4
					c0,0,0,0,0,0c0,0,0.1,0.1,0.1,0.1c1.3,1.3,12.7,12.9,24.8,25c0,0,0.1,0.1,0.1,0.1c7.8,7.7,15.9,15.6,21.9,21.1
					c3.4,3.1,6.2,5.5,7.8,6.6c-7.9,7.4-34.5,36.8-43.8,47l5.8,1.8c16.8-18.5,35.5-38.9,41.5-44.5l5.5-5.1L225.8,80.9z"/>
				<path id="Fill-18" class="st1" d="M224.6,58.3c-9.4,15.1-33.4,54.5-41.1,67.2L90.8,116L143.6,2.6C143.6,2.6,194,47.8,224.6,58.3
					"/>
				<path id="Fill-20" d="M224.9,57.2c-30.1-10.3-80.2-55.1-80.7-55.5l-0.9-0.8L89.7,115.9l2.2,0.2l52-111.8
					c3.2,2.9,14.4,12.6,28.1,23.1c14.6,11.3,35.2,25.7,51,31.5c-9.4,15.2-30.7,50.2-40.7,66.4l2.3,0.2c10.5-17.2,32-52.5,40.8-66.7
					l0.8-1.3L224.9,57.2z"/>
				<path id="Fill-22" class="st1" d="M203,70.1c-5.9,8.7-25.2,42.4-31.9,54.1l-68.7-7l41.3-87.6c0,0,0,0,0,0c0,0,0.1,0,0.1,0.1
					C146.7,32,194,69.5,203,70.1"/>
				<path id="Fill-24" d="M203.1,69l-0.1,0c-1.6-0.2-4.6-1.6-8.3-3.7c-6.4-3.7-15.1-9.8-23.7-16.1c0,0-0.1-0.1-0.2-0.1
					c-10.6-7.7-20.9-15.8-26.5-20.3l-0.8-1.2l-42.2,89.6l2.2,0.2l40.5-86.1c6.4,5.1,45.6,35.9,57.3,39.6
					c-6.8,10.5-24.5,41.3-31.3,53.2l2.2,0.2c7.5-13.2,25.9-45.1,31.6-53.5l1.2-1.7L203.1,69z"/>
				<path id="Fill-26" class="st3" d="M205,64.8c-6-2.7-33.4-21.8-57.9-39.6l-5.4-2.3l-2.5,4.1l-42.2,89.7l5.4,0.6l41.3-87.6
					c0,0,0,0,0,0c0,0,0.1,0,0.1,0.1c1.5,1,13.8,10,27.1,19.3c0,0,0.1,0.1,0.2,0.1c8.5,5.9,17.3,12,23.7,16.1
					c3.7,2.4,6.6,4.1,8.3,4.9c-5.9,8.7-25.2,42.4-31.9,54.1l5.6,0.6c12.1-21.2,25.8-44.6,30.3-51.2l4.1-6L205,64.8z"/>
				<path id="Fill-28" class="st1" d="M200.6,51.9c-7.8,16-27.7,57.7-34.2,71.2H73.3L114.4,4.6C114.4,4.6,169.1,44.6,200.6,51.9"/>
				<path id="Fill-30" d="M200.8,50.8C169.8,43.6,115.5,4,115,3.6l-1-0.8L72.2,123.1h2.2L114.9,6.3c3.5,2.5,15.6,11.1,30.3,20.2
					c15.7,9.7,37.6,22,53.9,26.2c-7.9,16.2-25.5,53.1-33.8,70.4h2.3c8.7-18.2,26.6-55.6,33.9-70.6l0.7-1.4L200.8,50.8z"/>
				<path id="Fill-32" class="st1" d="M180.3,65.9c-5,9.3-20.8,44.8-26.3,57.2H84.9l32.3-91.6c0,0,0,0,0,0c0,0,0.1,0,0.1,0.1
					C120.4,33.6,171.3,66.2,180.3,65.9"/>
				<path id="Fill-34" d="M180.3,64.7h-0.1c-1.6,0-4.7-1.1-8.6-2.9c-6.7-3.1-16-8.3-25.2-13.7c0,0-0.1-0.1-0.2-0.1
					c-11.3-6.6-22.4-13.6-28.4-17.5l-1-1.1l-33,93.6H86l31.7-89.9c6.9,4.4,49,31.2,61,33.7c-5.7,11.2-20.2,43.6-25.8,56.2h2.3
					c6.2-13.9,21.2-47.6,26.1-56.6l1-1.8L180.3,64.7z"/>
				<path id="Fill-36" class="st3" d="M181.7,60.3c-6.3-2.1-33.8-17.6-60-32.8l-6.7-4.1l-2.5,5.9l-33,93.7h5.4l32.3-91.6
					c0,0,0,0,0,0c0,0,0.1,0,0.1,0.1c1.5,0.9,14.8,8.6,28.9,16.5c0.1,0,0.1,0.1,0.2,0.1c9,5.1,18.4,10.2,25.2,13.7c3.9,2,7,3.4,8.8,4
					c-5,9.3-20.8,44.8-26.3,57.2h5.6c9.9-22.4,21.2-47.1,25-54.2l3.5-6.4C183.8,61.1,181.7,60.3,181.7,60.3z"/>
				<g id="Group-41" transform="translate(43.693391, 109.031281)">
					<path id="Fill-38" class="st1" d="M0.4,99.1V14.2c0-7.8,6.3-14.1,14-14.1h44.2"/>
					<path id="Stroke-40" class="st2" d="M0.4,99.1V14.2c0-7.8,6.3-14.1,14-14.1h44.2"/>
				</g>
				<path id="Fill-42" class="st3" d="M152.6,72.2c0,6-4.8,10.9-10.8,10.9c-6,0-10.8-4.9-10.8-10.9s4.8-10.9,10.8-10.9
					C147.8,61.3,152.6,66.2,152.6,72.2"/>
				<path id="Fill-44" class="st3" d="M122.5,134.4c-13,0-23.5-10.5-23.5-23.6c0-13,10.5-23.6,23.5-23.6s23.5,13.2,23.5,23.6
					C145.9,123.9,135.4,134.4,122.5,134.4z"/>
				<path id="Stroke-46" class="st2" d="M145.9,110.8c0,13-10.5,23.6-23.5,23.6S99,123.9,99,110.8c0-13,10.5-23.6,23.5-23.6
					S145.9,100.5,145.9,110.8z"/>
			</g>
			<path id="_x24_" d="M133.8,123.7l-2.7,2l-2.1-2.8c-4.1,2.3-7.8,1-9.7-1.1l2.7-3.3c1.4,1.5,3.7,2.2,6.1,0.4c1.7-1.3,2.1-2.9,1.3-4
				c-0.7-0.9-1.8-1.1-3.4-0.4l-2.8,1.3c-3.3,1.5-6.5,1.1-8.4-1.4c-2.1-2.8-1.5-6.5,1.1-9l-2.1-2.8l2.7-2l2.2,2.9
				c3.5-1.8,6.4-0.7,8.1,0.8l-2.6,3.4c-0.8-0.8-2.7-1.8-4.9-0.2c-1.7,1.3-1.9,3-1.1,4c0.6,0.8,1.7,1.1,3.2,0.4l2.8-1.3
				c3.9-1.8,6.9-1,8.7,1.4c1.8,2.4,1.7,6-1.1,8.9L133.8,123.7z"/>
			<g id="Group-91" transform="translate(8.302583, 122.693727)">
				<path id="Fill-49" class="st1" d="M174.4,111.1H53.3c-9.7,0-17.6-7.9-17.6-17.6V0.8h137.4c6,0,10.9,4.9,10.9,11v89.7
					C184,106.8,179.7,111.1,174.4,111.1"/>
				<path id="Stroke-51" class="st2" d="M174.4,111.1H53.3c-9.7,0-17.6-7.9-17.6-17.6V0.8h137.4c6,0,10.9,4.9,10.9,11v89.7
					C184,106.8,179.7,111.1,174.4,111.1z"/>
				<path id="Fill-53" class="st1" d="M163.8,66.2h29.4c3,0,5.4-2.4,5.4-5.4V46.4c0-3-2.4-5.4-5.4-5.4h-29.4c-3.1,0-6.2,1.2-8.4,3.4
					c-2.9,2.8-6.4,6.8-6.4,9.2c0,2.4,3.5,6.3,6.4,9.2C157.6,65,160.6,66.2,163.8,66.2"/>
				<path id="Stroke-55" class="st2" d="M163.8,66.2h29.4c3,0,5.4-2.4,5.4-5.4V46.4c0-3-2.4-5.4-5.4-5.4h-29.4
					c-3.1,0-6.2,1.2-8.4,3.4c-2.9,2.8-6.4,6.8-6.4,9.2c0,2.4,3.5,6.3,6.4,9.2C157.6,65,160.6,66.2,163.8,66.2z"/>
				<path id="Fill-57" class="st1" d="M175.5,50c0,3.6-2.9,6.6-6.5,6.6c-3.6,0-6.5-2.9-6.5-6.6c0-3.6,2.9-6.6,6.5-6.6
					C172.5,43.4,175.5,46.4,175.5,50"/>
				<path id="Stroke-59" class="st2" d="M175.5,54c0,3.6-2.9,6.6-6.5,6.6c-3.6,0-6.5-2.9-6.5-6.6c0-3.6,2.9-6.6,6.5-6.6
					C172.5,47.4,175.5,50.4,175.5,54z"/>
				<path id="Fill-71" class="st4" d="M59.7,124.1c-8,6.4-19.7,5.1-26.1-3c-6.4-8-5.1-19.7,3-26.1c8-6.4,19.7-5.1,26.1,3
					C69,106,67.7,117.7,59.7,124.1"/>
				<path id="Fill-73" class="st5" d="M57.6,122.5c-7.3,5.9-18,4.6-23.9-2.7c-5.8-7.4-4.6-18.1,2.7-23.9c7.3-5.9,18-4.6,23.9,2.7
					C66.2,105.9,65,116.6,57.6,122.5"/>
				<path id="Fill-75" class="st6" d="M55.7,120c-6,4.8-14.7,3.8-19.5-2.2c-4.8-6-3.8-14.7,2.2-19.5c6-4.8,14.7-3.8,19.5,2.2
					C62.7,106.5,61.7,115.3,55.7,120"/>
				<path id="Fill-77" class="st4" d="M55,119.2c-5.7,4.5-13.9,3.6-18.4-2.1c-4.5-5.7-3.6-13.9,2.1-18.4c5.7-4.5,13.9-3.6,18.4,2.1
					C61.6,106.4,60.7,114.7,55,119.2"/>
				<path id="Fill-79" class="st5" d="M43.1,115.3l0.8-1.6c-1.9-1.4-2.1-3.3-1.5-4.7l2,0.5c-0.4,1-0.2,2.1,1.1,2.9
					c0.9,0.5,1.7,0.3,2.1-0.3c0.3-0.5,0.1-1.1-0.5-1.6l-1.2-1c-1.4-1.2-1.8-2.7-1.1-4.1c0.8-1.5,2.6-2.1,4.3-1.5l0.8-1.6l1.5,0.8
					l-0.9,1.6c1.5,1.2,1.6,2.8,1.3,3.8l-2.1-0.4c0.2-0.6,0.3-1.6-0.9-2.2c-0.9-0.5-1.7-0.2-2,0.4c-0.2,0.5-0.1,1,0.5,1.5l1.2,1
					c1.6,1.4,1.9,2.9,1.2,4.2c-0.7,1.3-2.3,2.1-4.2,1.4l-0.8,1.6L43.1,115.3z"/>
				<path id="Fill-81" class="st4" d="M47.5,99.6c0,12.9-10.4,23.4-23.3,23.4c-12.9,0-23.3-10.5-23.3-23.4s10.5-23.4,23.3-23.4
					C37,76.2,47.5,86.7,47.5,99.6"/>
				<path id="Fill-83" class="st5" d="M44.3,100.4c0,11.8-9.6,21.4-21.4,21.4c-11.8,0-21.4-9.6-21.4-21.4S11.2,79,23,79
					C34.8,79,44.3,88.5,44.3,100.4"/>
				<path id="Fill-85" class="st6" d="M40.4,100.4c0,9.7-7.8,17.5-17.4,17.5c-9.6,0-17.4-7.8-17.4-17.5c0-9.7,7.8-17.5,17.4-17.5
					C32.6,82.9,40.4,90.7,40.4,100.4"/>
				<path id="Fill-87" class="st4" d="M39,100.4c0,9.1-7.4,16.5-16.5,16.5c-9.1,0-16.5-7.4-16.5-16.5c0-9.1,7.4-16.5,16.5-16.5
					C31.7,83.9,39,91.3,39,100.4"/>
				<path id="Fill-89" class="st5" d="M25.9,109.2l-0.9-2c-2.8,0.8-4.9-0.6-5.8-2.1l2.1-1.6c0.6,1.2,1.9,1.9,3.7,1.2
					c1.2-0.5,1.7-1.4,1.3-2.3c-0.3-0.6-1-0.9-2-0.7l-1.9,0.4c-2.3,0.4-4.1-0.3-4.9-2.1c-0.9-2,0-4.2,1.9-5.4l-0.9-2l1.9-0.8l0.9,2.1
					c2.4-0.6,4,0.6,4.8,1.7L24.2,97c-0.4-0.6-1.4-1.5-2.9-0.8c-1.2,0.5-1.6,1.5-1.2,2.3c0.3,0.6,0.9,0.9,1.9,0.7l1.9-0.4
					c2.6-0.5,4.3,0.4,5.1,2.2c0.8,1.8,0.2,3.9-1.9,5.3l0.9,2.1L25.9,109.2z"/>
			</g>
		</g>
	</g>
</g>
</svg>
