<?xml version="1.0" encoding="utf-8"?>
<!-- Generator: Adobe Illustrator 21.0.1, SVG Export Plug-In . SVG Version: 6.00 Build 0)  -->
<svg version="1.1" id="Layer_1" xmlns="http://www.w3.org/2000/svg" xmlns:xlink="http://www.w3.org/1999/xlink" x="0px" y="0px"
	 viewBox="0 0 242 243" style="enable-background:new 0 0 242 243;" xml:space="preserve">
<style type="text/css">
	.st0{fill:#FFFFFF;}
	.st1{filter:url(#Adobe_OpacityMaskFilter);}
	.st2{mask:url(#mask-2);fill:#F4F5F7;}
	.st3{fill:none;stroke:#0A0F37;stroke-width:2;}
	.st4{fill:#0A0F37;}
	.st5{fill:#545454;}
	.st6{fill:#D19818;}
	.st7{fill:#FDBC18;}
</style>
<g>
	<polygon id="path-3" class="st0" points="83.1,31.6 76.8,200.7 161.6,196.2 169.7,26.2 	"/>
</g>
<title>Artwork</title>
<desc>Created with Sketch.</desc>
<g id="Page-1">
	<g id="_x32__x5F_Onboarding-_x23_1" transform="translate(-67.000000, -144.000000)">
		<g id="Artwork" transform="translate(62.000000, 144.000000)">
			<g id="Group-16">
				<g id="Group-3">
					<g id="Clip-2">
					</g>
					<defs>
						<filter id="Adobe_OpacityMaskFilter" filterUnits="userSpaceOnUse" x="5.4" y="8.1" width="241.3" height="234.7">
							<feColorMatrix  type="matrix" values="1 0 0 0 0  0 1 0 0 0  0 0 1 0 0  0 0 0 1 0"/>
						</filter>
					</defs>
					<mask maskUnits="userSpaceOnUse" x="5.4" y="8.1" width="241.3" height="234.7" id="mask-2">
						<g class="st1">
							<polygon id="path-1" class="st0" points="0,0.2 251.7,0.2 251.7,249.1 0,249.1 							"/>
						</g>
					</mask>
					<path id="Fill-1" class="st2" d="M7.8,128.6C30.4,75,13,7.8,87.3,8.1c59.7,0.2,88.3,14.3,130.2,37.7
						c40.6,22.7,41.7,87.5-15.3,145.9s-99.8,56.8-120.7,43.4C60.5,221.8-8.4,167,7.8,128.6"/>
				</g>
				<path id="Fill-4" class="st0" d="M166,49.4c32.3-20,43-36.5,49.5-25.1c4.4,7.7-40.5,62.5-49.5,68.3
					C163.3,64.8,166,49.4,166,49.4"/>
				<path id="Stroke-6" class="st3" d="M166,49.4c32.3-20,43-36.5,49.5-25.1c4.4,7.7-40.5,62.5-49.5,68.3
					C163.3,64.8,166,49.4,166,49.4z"/>
				<path id="Fill-8" class="st4" d="M76.6,133.1c2.9-64,2.9-97,4.8-109.2C83.3,11.6,89.1,6,110.2,5.1s39.4-4.7,52.9-4.7
					c13.5,0,25-1.9,25,33.9c0,35.8-7.1,160.5-7.1,169c0,8.5,1.9,29.8-21.2,29.8c-23.1,0-44-0.3-61.5,2.2c-16.2,2.3-21.7-6-21.7-29.6
					V133.1z"/>
				<path id="Fill-10" class="st5" d="M76.1,128.2c2.7-61.7,2.7-93.4,4.5-105.2c1.8-11.8,7.2-17.2,26.9-18.1
					c19.7-0.9,36.7-4.5,49.3-4.5c12.5,0,23.3-1.8,23.3,32.7c0,34.5-7.2,170.5-7.2,178.7c0,8.2,0,15.4-21.5,15.4s-39.5-1.1-54.7-0.2
					c-15.2,0.9-20.6-6.2-20.6-28.9V128.2z"/>
				<polygon id="Fill-12" class="st0" points="88.2,31.2 174.2,25.8 166.2,197.2 81.9,201.7 				"/>
				<path id="Fill-14" class="st0" d="M130.4,213.4c0,4.1-3.3,7.4-7.3,7.4c-4,0-7.3-3.3-7.3-7.4c0-4.1,3.3-7.4,7.3-7.4
					C127.1,206.1,130.4,209.4,130.4,213.4"/>
			</g>
			<g id="Group-18" transform="translate(81.000000, 26.000000)">
				<g id="Clip-17">
					<polygon id="path-3_1_" class="st0" points="7.1,5.6 0.8,174.7 85.6,170.2 93.7,0.2 					"/>
				</g>
			</g>
			<g id="Group-43" transform="translate(40.000000, 56.000000)">
				<path id="Fill-19" class="st0" d="M0.2,168.4c12.8-10,35.4-35.2,28.1-73.6C21,56.4,15.4,52.3,24.7,38
					c9.3-14.3,18.6-35.7,26-20.9C58.1,32,51,58.8,39.5,62.3c9.7,9.3,47,42.5,22,74.8c-16.1,18.1-32.8,14.3-37.1,48.8
					C22.4,184.5,0.2,168.4,0.2,168.4"/>
				<path id="Stroke-21" class="st3" d="M0.2,168.4c12.8-10,35.4-35.2,28.1-73.6C21,56.4,15.4,52.3,24.7,38
					c9.3-14.3,18.6-35.7,26-20.9C58.1,32,51,58.8,39.5,62.3c9.7,9.3,47,42.5,22,74.8c-16.1,18.1-31.2,12.4-37.1,48.8"/>
				<path id="Fill-23" class="st0" d="M145.9,37.3c-8.5,9.4-30.2,24.5-40.3,31.3c-10.7,7.2-5.7,15.3,18.4,7
					c13.8-4.7,23.4-10.6,26.3-17.1C155.1,47.7,145.9,37.3,145.9,37.3"/>
				<path id="Stroke-25" class="st3" d="M145.9,37.3c-8.5,9.4-30.2,24.5-40.3,31.3c-10.7,7.2-5.7,15.3,18.4,7
					c13.8-4.7,23.4-10.6,26.3-17.1C155.1,47.7,145.9,37.3,145.9,37.3z"/>
				<path id="Fill-27" class="st0" d="M144.6,65.3c-8.2,6.5-25.9,13.8-37.8,13.8c-6.8,3.5-11.7,12.5,1,11.9
					c12.6-0.6,35.5-0.2,41-17.5c3.5-11.1,1.4-14.8,0.9-13.9C148.5,61.9,146.7,63.7,144.6,65.3"/>
				<path id="Stroke-29" class="st3" d="M144.6,65.3c-8.2,6.5-25.9,13.8-37.8,13.8c-6.8,3.5-11.7,12.5,1,11.9
					c12.6-0.6,35.5-0.2,41-17.5c3.5-11.1,1.4-14.8,0.9-13.9C148.5,61.9,146.7,63.7,144.6,65.3z"/>
				<path id="Fill-31" class="st0" d="M113,90.9c17,0,27.7-5.1,31.8-10.1c5.1,1.3,3.4,16.1-14.4,17.3C111.3,99.5,113,90.9,113,90.9"
					/>
				<path id="Stroke-33" class="st3" d="M113,90.9c17,0,27.7-5.1,31.8-10.1c5.1,1.3,3.4,16.1-14.4,17.3
					C111.3,99.5,113,90.9,113,90.9z"/>
				<path id="Fill-37" class="st6" d="M108.1,20.1c0,10.8-8.7,19.5-19.5,19.5s-19.5-8.7-19.5-19.5S77.9,0.6,88.6,0.6
					S108.1,9.4,108.1,20.1"/>
				<path id="Fill-39" class="st7" d="M102.9,20.1c0,10.8-3.5,19.5-14.2,19.5s-19.5-8.7-19.5-19.5S77.9,0.6,88.6,0.6
					S102.9,9.4,102.9,20.1"/>
				<polygon id="Stroke-41" class="st4" points="98.5,9.6 101.5,12.2 87.5,28.4 76.2,19.5 78.6,16.4 86.9,23 				"/>
			</g>
			<path id="Accept-Jobs" d="M107.2,106.8c0.1-0.1,0.3-0.1,0.5-0.2c0.2-0.1,0.4-0.1,0.7-0.1c0.3,0,0.6,0,0.9,0.1
				c0.3,0.1,0.4,0.2,0.5,0.4c0.1,0.3,0.3,0.7,0.4,1.2c0.2,0.4,0.3,0.9,0.5,1.4c0.2,0.5,0.3,0.9,0.4,1.4c0.1,0.5,0.3,0.9,0.4,1.2
				c-0.1,0.1-0.2,0.2-0.3,0.2c-0.2,0.1-0.3,0.1-0.5,0.1c-0.2,0-0.3,0-0.4,0c-0.1,0-0.2-0.1-0.3-0.1c-0.1-0.1-0.1-0.1-0.2-0.2
				s-0.1-0.2-0.1-0.3l-0.2-0.7l-1.8,0.1c0,0.2-0.1,0.4-0.1,0.6c0,0.2-0.1,0.4-0.1,0.6c-0.1,0-0.2,0.1-0.3,0.1c-0.1,0-0.2,0-0.4,0
				c-0.3,0-0.6,0-0.7-0.1c-0.2-0.1-0.2-0.3-0.3-0.5c0-0.1,0-0.2,0-0.3c0-0.1,0-0.2,0.1-0.3c0-0.2,0.1-0.4,0.2-0.7
				c0.1-0.3,0.2-0.6,0.2-0.9c0.1-0.3,0.2-0.6,0.3-1c0.1-0.3,0.2-0.6,0.3-0.9c0.1-0.3,0.2-0.5,0.2-0.8
				C107.1,107.1,107.1,106.9,107.2,106.8z M108.4,108c-0.1,0.3-0.2,0.6-0.3,0.9c-0.1,0.3-0.2,0.7-0.3,1l1.2,0
				c-0.1-0.4-0.2-0.7-0.3-1S108.5,108.3,108.4,108L108.4,108z M114.5,108.7c-0.2,0-0.3,0-0.5,0.1c-0.1,0.1-0.3,0.1-0.4,0.2
				c-0.1,0.1-0.2,0.2-0.2,0.4c-0.1,0.2-0.1,0.3-0.1,0.5c0,0.4,0.1,0.7,0.4,0.9c0.2,0.2,0.5,0.3,0.8,0.3c0.2,0,0.4,0,0.5-0.1
				c0.1-0.1,0.3-0.1,0.4-0.2c0.1,0.1,0.2,0.2,0.3,0.3c0.1,0.1,0.1,0.2,0.1,0.4c0,0.3-0.1,0.5-0.4,0.6c-0.2,0.2-0.6,0.2-1,0.3
				c-0.4,0-0.8,0-1.1-0.1c-0.3-0.1-0.6-0.3-0.9-0.5c-0.2-0.2-0.4-0.5-0.6-0.8c-0.1-0.3-0.2-0.6-0.2-1c0-0.4,0-0.8,0.2-1.1
				c0.1-0.3,0.3-0.6,0.5-0.8s0.5-0.4,0.8-0.5c0.3-0.1,0.6-0.2,1-0.2c0.5,0,0.8,0.1,1.1,0.2c0.3,0.2,0.4,0.4,0.4,0.6
				c0,0.1,0,0.2-0.1,0.4c-0.1,0.1-0.1,0.2-0.2,0.3c-0.1,0-0.2-0.1-0.4-0.1C114.8,108.7,114.6,108.7,114.5,108.7z M119,108.5
				c-0.2,0-0.3,0-0.5,0.1c-0.1,0.1-0.3,0.1-0.4,0.2c-0.1,0.1-0.2,0.2-0.2,0.4c-0.1,0.2-0.1,0.3-0.1,0.5c0,0.4,0.1,0.7,0.4,0.9
				c0.2,0.2,0.5,0.3,0.8,0.3c0.2,0,0.4,0,0.5-0.1s0.3-0.1,0.4-0.2c0.1,0.1,0.2,0.2,0.3,0.3c0.1,0.1,0.1,0.2,0.1,0.4
				c0,0.3-0.1,0.5-0.4,0.6c-0.2,0.2-0.6,0.2-1,0.3c-0.4,0-0.8,0-1.1-0.1c-0.3-0.1-0.6-0.3-0.9-0.5c-0.2-0.2-0.4-0.5-0.6-0.8
				c-0.1-0.3-0.2-0.6-0.2-1c0-0.4,0-0.8,0.2-1.1c0.1-0.3,0.3-0.6,0.5-0.8c0.2-0.2,0.5-0.4,0.8-0.5c0.3-0.1,0.6-0.2,1-0.2
				c0.5,0,0.8,0.1,1.1,0.2c0.3,0.2,0.4,0.4,0.4,0.6c0,0.1,0,0.2-0.1,0.4c-0.1,0.1-0.1,0.2-0.2,0.3c-0.1,0-0.2-0.1-0.4-0.1
				S119.2,108.5,119,108.5z M123.5,112.2c-0.4,0-0.7,0-1.1-0.1c-0.3-0.1-0.6-0.2-0.9-0.5c-0.2-0.2-0.4-0.5-0.6-0.8
				c-0.2-0.3-0.2-0.7-0.2-1.1c0-0.4,0-0.8,0.2-1.1c0.1-0.3,0.3-0.6,0.5-0.8c0.2-0.2,0.5-0.4,0.8-0.5c0.3-0.1,0.6-0.2,0.9-0.2
				c0.3,0,0.7,0,0.9,0.1s0.5,0.2,0.7,0.4c0.2,0.2,0.4,0.4,0.5,0.6c0.1,0.3,0.2,0.5,0.2,0.8c0,0.2,0,0.4-0.2,0.5
				c-0.1,0.1-0.3,0.2-0.5,0.2l-2.4,0.4c0.1,0.2,0.2,0.4,0.5,0.5c0.2,0.1,0.5,0.1,0.8,0.1c0.3,0,0.5-0.1,0.7-0.1
				c0.2-0.1,0.4-0.2,0.6-0.3c0.1,0.1,0.2,0.2,0.3,0.3c0.1,0.1,0.1,0.2,0.1,0.4c0,0.3-0.1,0.5-0.4,0.7c-0.2,0.1-0.4,0.2-0.7,0.3
				C123.9,112.1,123.7,112.2,123.5,112.2z M123.1,108.3c-0.2,0-0.3,0-0.4,0.1c-0.1,0.1-0.2,0.1-0.3,0.2c-0.1,0.1-0.1,0.2-0.2,0.3
				c0,0.1,0,0.2-0.1,0.3l1.6-0.3c0-0.1-0.1-0.3-0.2-0.4C123.5,108.4,123.3,108.3,123.1,108.3z M128.2,106.9c0.4,0,0.7,0,1.1,0.1
				c0.3,0.1,0.6,0.2,0.9,0.4s0.4,0.5,0.6,0.8s0.2,0.7,0.2,1.1c0,0.4,0,0.8-0.1,1.1s-0.3,0.6-0.5,0.8c-0.2,0.2-0.5,0.4-0.8,0.5
				c-0.3,0.1-0.6,0.2-1,0.2c-0.3,0-0.5,0-0.8-0.1l0.1,1.6c-0.1,0-0.2,0-0.3,0.1c-0.1,0-0.3,0-0.4,0c-0.1,0-0.3,0-0.4,0
				c-0.1,0-0.2-0.1-0.3-0.1c-0.1-0.1-0.1-0.1-0.2-0.2c0-0.1-0.1-0.2-0.1-0.4l-0.2-4.7c0-0.2,0-0.3,0.1-0.4c0.1-0.1,0.2-0.2,0.3-0.3
				c0.2-0.1,0.4-0.3,0.7-0.3C127.5,107,127.8,106.9,128.2,106.9z M128.3,110.7c0.7,0,1-0.4,1-1.2c0-0.4-0.1-0.7-0.3-0.9
				c-0.2-0.2-0.4-0.3-0.7-0.3c-0.1,0-0.2,0-0.3,0.1c-0.1,0-0.2,0.1-0.2,0.1l0.1,2.2c0.1,0,0.2,0.1,0.3,0.1
				C128.1,110.7,128.2,110.7,128.3,110.7z M133.4,110c0,0.2,0.1,0.3,0.2,0.4c0.1,0.1,0.3,0.1,0.5,0.1c0.1,0,0.2,0,0.3,0
				c0.1,0,0.2,0,0.3-0.1c0.1,0.1,0.1,0.1,0.2,0.2c0,0.1,0.1,0.2,0.1,0.3c0,0.2-0.1,0.5-0.3,0.6c-0.2,0.2-0.5,0.3-1,0.3
				c-0.6,0-1-0.1-1.3-0.3c-0.3-0.3-0.5-0.7-0.5-1.3l-0.1-4.2c0.1,0,0.2,0,0.3-0.1s0.3,0,0.4,0c0.3,0,0.5,0,0.7,0.1
				c0.2,0.1,0.2,0.3,0.3,0.6l0,0.6l1.3,0c0,0.1,0.1,0.2,0.1,0.3c0,0.1,0.1,0.2,0.1,0.4c0,0.2,0,0.4-0.1,0.5
				c-0.1,0.1-0.2,0.2-0.4,0.2l-0.9,0L133.4,110z M138.4,105.5c0.1,0,0.2,0,0.3-0.1c0.2,0,0.3,0,0.4,0c0.1,0,0.3,0,0.4,0
				c0.1,0,0.2,0.1,0.3,0.1c0.1,0.1,0.1,0.1,0.2,0.2c0,0.1,0.1,0.2,0.1,0.4l0.1,3.6c0,0.6-0.1,1-0.4,1.3c-0.3,0.3-0.8,0.5-1.4,0.5
				c-0.3,0-0.6,0-0.8-0.1c-0.2-0.1-0.3-0.2-0.3-0.3c-0.1-0.1-0.1-0.3-0.1-0.4c0-0.1,0-0.2,0-0.3c0-0.1,0.1-0.2,0.1-0.2
				c0.1,0,0.2,0,0.3,0c0.1,0,0.2,0,0.3,0c0.3,0,0.4-0.1,0.5-0.2c0.1-0.1,0.2-0.3,0.1-0.6L138.4,105.5z M146.2,108.8
				c0,0.4,0,0.8-0.1,1.1c-0.1,0.3-0.3,0.6-0.5,0.8c-0.2,0.2-0.5,0.4-0.8,0.5c-0.3,0.1-0.6,0.2-1,0.2s-0.7,0-1-0.1
				c-0.3-0.1-0.6-0.3-0.8-0.5c-0.2-0.2-0.4-0.5-0.5-0.8c-0.1-0.3-0.2-0.7-0.2-1.1c0-0.4,0-0.7,0.1-1.1c0.1-0.3,0.3-0.6,0.5-0.8
				c0.2-0.2,0.5-0.4,0.8-0.5s0.6-0.2,1-0.2c0.4,0,0.7,0,1,0.1c0.3,0.1,0.6,0.3,0.8,0.5c0.2,0.2,0.4,0.5,0.5,0.8
				C146.1,108.1,146.2,108.4,146.2,108.8z M142.8,108.9c0,0.4,0.1,0.7,0.3,0.9c0.2,0.2,0.4,0.3,0.6,0.3c0.3,0,0.5-0.1,0.6-0.3
				s0.2-0.5,0.2-0.9c0-0.4-0.1-0.7-0.3-0.9c-0.2-0.2-0.4-0.3-0.6-0.3c-0.3,0-0.5,0.1-0.6,0.3C142.8,108.2,142.8,108.5,142.8,108.9z
				 M146.8,104.8c0.1,0,0.2,0,0.3-0.1c0.1,0,0.3,0,0.4,0c0.1,0,0.3,0,0.4,0c0.1,0,0.2,0.1,0.3,0.1c0.1,0.1,0.1,0.1,0.2,0.2
				s0.1,0.2,0.1,0.4l0,1c0.2-0.1,0.3-0.1,0.5-0.2s0.3,0,0.5-0.1c0.3,0,0.6,0,0.9,0.1s0.5,0.3,0.8,0.5c0.2,0.2,0.4,0.5,0.5,0.8
				c0.1,0.3,0.2,0.7,0.2,1.1c0,0.4,0,0.8-0.1,1.1c-0.1,0.3-0.3,0.6-0.5,0.8c-0.2,0.2-0.5,0.4-0.8,0.5s-0.7,0.2-1.1,0.2
				c-0.4,0-0.8,0-1.1-0.1c-0.3-0.1-0.6-0.2-0.8-0.4c-0.3-0.2-0.4-0.5-0.5-0.8L146.8,104.8z M149.2,109.9c0.3,0,0.5-0.1,0.7-0.3
				c0.2-0.2,0.2-0.5,0.2-0.9c0-0.4-0.1-0.7-0.3-0.9c-0.2-0.2-0.4-0.3-0.7-0.3c-0.1,0-0.2,0-0.3,0.1s-0.2,0.1-0.3,0.1l0.1,2.1
				c0.1,0,0.2,0.1,0.3,0.1C149,109.9,149.1,109.9,149.2,109.9z M156.5,109.4c0,0.5-0.2,0.9-0.5,1.2c-0.4,0.3-0.9,0.5-1.6,0.5
				c-0.3,0-0.5,0-0.8,0c-0.2,0-0.4-0.1-0.6-0.2c-0.2-0.1-0.3-0.2-0.4-0.3c-0.1-0.1-0.1-0.3-0.2-0.4c0-0.2,0-0.3,0.1-0.4
				c0.1-0.1,0.1-0.2,0.2-0.3c0.2,0.1,0.4,0.2,0.7,0.3c0.2,0.1,0.5,0.1,0.8,0.1c0.2,0,0.4,0,0.5-0.1c0.1-0.1,0.2-0.1,0.2-0.2
				c0-0.1,0-0.2-0.1-0.2c-0.1,0-0.2-0.1-0.4-0.1l-0.3,0c-0.6-0.1-1-0.3-1.3-0.5c-0.3-0.2-0.4-0.6-0.4-1c0-0.2,0-0.5,0.1-0.7
				s0.2-0.4,0.4-0.5c0.2-0.1,0.4-0.2,0.7-0.3c0.3-0.1,0.5-0.1,0.9-0.1c0.2,0,0.5,0,0.7,0c0.2,0,0.4,0.1,0.6,0.1
				c0.2,0.1,0.3,0.2,0.4,0.3c0.1,0.1,0.1,0.2,0.1,0.4c0,0.2,0,0.3-0.1,0.4c-0.1,0.1-0.1,0.2-0.2,0.3c-0.1,0-0.1-0.1-0.2-0.1
				c-0.1,0-0.2-0.1-0.3-0.1c-0.1,0-0.2,0-0.4-0.1c-0.1,0-0.2,0-0.3,0c-0.2,0-0.4,0-0.5,0.1c-0.1,0.1-0.2,0.1-0.2,0.2
				c0,0.1,0,0.1,0.1,0.2c0.1,0,0.2,0.1,0.4,0.1l0.3,0.1c0.6,0.1,1.1,0.3,1.3,0.5C156.4,108.7,156.5,109,156.5,109.4z"/>
		</g>
	</g>
</g>
</svg>
