<?xml version="1.0" encoding="utf-8"?>
<!-- Generator: Adobe Illustrator 21.0.1, SVG Export Plug-In . SVG Version: 6.00 Build 0)  -->
<svg version="1.1" id="Layer_1" xmlns="http://www.w3.org/2000/svg" xmlns:xlink="http://www.w3.org/1999/xlink" x="0px" y="0px"
	 viewBox="0 0 263 231" style="enable-background:new 0 0 263 231;" xml:space="preserve">
<style type="text/css">
	.st0{fill:none;stroke:#E9EAEC;stroke-dasharray:5.017,5.017;}
	.st1{fill:none;stroke:#E9EAEC;stroke-dasharray:5.045,5.045;}
	.st2{fill:#FFFFFF;}
	.st3{fill:#F1F2F7;}
	.st4{fill:#6561AB;}
	.st5{fill:none;stroke:#0E1D25;stroke-width:2;stroke-dasharray:7;}
	.st6{fill:#D8DBEA;}
	.st7{fill:#FDBC18;}
</style>
<title>Artwork</title>
<desc>Created with Sketch.</desc>
<g id="Page-1">
	<g id="_x35__x5F_Setup-GPS-locations" transform="translate(-56.000000, -131.000000)">
		<g id="Group" transform="translate(22.000000, 131.000000)">
			<g id="Artwork" transform="translate(34.000000, 0.000000)">
				<path id="Stroke-1" class="st0" d="M238,126.1c0,57.3-46.5,103.8-103.8,103.8S30.5,183.4,30.5,126.1S76.9,22.3,134.2,22.3
					S238,68.8,238,126.1z"/>
				<path id="Stroke-3" class="st1" d="M211.3,126.1c0,42.6-34.5,77.1-77.1,77.1c-42.6,0-77.1-34.5-77.1-77.1S91.7,49,134.2,49
					C176.8,49,211.3,83.5,211.3,126.1z"/>
				<path id="Fill-47" class="st2" d="M178.9,58.6c0,5.3-4.3,9.5-9.5,9.5c-5.3,0-9.5-4.3-9.5-9.5s4.3-9.5,9.5-9.5
					C174.6,49,178.9,53.3,178.9,58.6"/>
				<path id="Fill-49" class="st3" d="M73.4,184.6L59.2,96.9c-0.2-1.3,0.4-2.6,1.5-3.3l37.5-22.9c0.7-0.4,1.6-0.6,2.5-0.4l46.3,11.4
					c0.9,0.2,1.8,0.1,2.5-0.4l31-20c1.8-1.2,4.3-0.3,4.9,1.8l26,89.9c0.4,1.3-0.1,2.7-1.2,3.5L181.6,177c-0.8,0.6-1.7,0.7-2.7,0.5
					L124.7,164c-0.8-0.2-1.6-0.1-2.3,0.3l-44.4,22.7C76.1,187.9,73.7,186.7,73.4,184.6"/>
				<path id="Fill-51" class="st4" d="M169.5,66c-4.5,0-8.2-3.7-8.2-8.2s3.7-8.2,8.2-8.2c4.5,0,8.2,3.7,8.2,8.2S174,66,169.5,66
					 M169.5,40.6c-9.3-0.3-17,7-17.2,16.3c0,0.3,0,0.5,0,0.8c0,14.3,16,27.5,16.6,28.1c0.3,0.3,0.8,0.3,1.2,0
					c0.7-0.6,16.7-15.2,16.7-28.1c0.2-9.3-7.2-16.9-16.4-17.1C170,40.6,169.7,40.6,169.5,40.6"/>
				<path id="Stroke-53" class="st5" d="M105.2,144.8l27.6,7.2c2.9,0.8,5.2-2.5,3.5-5c-9.5-13.8-27.4-42.4-10.6-41.2
					c22.1,1.6,17.9,21.5,22.6,24.2c4.7,2.6,33.2-3.3,34.2-13.7c1.1-10.5-2.6-15.7-10-18.9c-7.4-3.2-3.7-11.7-3.7-11.7"/>
				<path id="Fill-55" class="st6" d="M69.9,108.5l-1.9-7.4c-0.4-1.6,0.3-3.3,1.8-4.2l23-13.2c0.2-0.1,0.4-0.2,0.6-0.3l7.6-2.8
					c0.7-0.2,1.4-0.3,2.1-0.1l16.8,3.6c1.3,0.3,2.4,1.3,2.8,2.6c0.7,2.5-1.3,5-3.9,4.7l-7.4-0.7c-2.4-0.2-4.3,1.8-4,4.2l0.7,5.7
					c0.2,1.7-0.8,3.3-2.4,3.9L90,110.4c-1.1,0.4-2.3,0.3-3.3-0.4l-4.2-2.7c-1.7-1.1-4-0.6-5.1,1.1l-0.8,1.2
					C74.9,112.3,70.7,111.7,69.9,108.5"/>
				<path id="Fill-57" class="st6" d="M171.7,141.8l5.3,22.7c0.6,2.6,3.7,3.7,5.8,2.1l17.6-13c1.2-0.9,1.8-2.5,1.4-4l-4.1-15.4
					c-0.5-2-2.7-3.2-4.7-2.6l-18.8,5.7C172.4,138,171.3,139.9,171.7,141.8"/>
				<path id="Fill-59" class="st6" d="M150,149.3l12.1,0.8c1.6,0.1,2.9,1.2,3.3,2.7l2.3,8.5c0.8,2.7-1.7,5.3-4.4,4.6l-12-2.8
					c-1.2-0.3-2.2-1.1-2.6-2.3l-2.5-6.4C145.3,151.8,147.3,149.1,150,149.3"/>
				<path id="Fill-61" class="st7" d="M94.1,143.8c-4.9,0-8.8-4-8.8-8.8c0-4.9,4-8.8,8.8-8.8c4.9,0,8.8,4,8.8,8.8
					C102.9,139.8,99,143.8,94.1,143.8 M94.1,116.3c-10-0.3-18.4,7.6-18.7,17.6c0,0.3,0,0.6,0,0.9c0,15.5,17.3,29.8,18,30.4
					c0.4,0.3,0.9,0.3,1.3,0c0.8-0.7,18-16.4,18-30.4c0.2-10-7.8-18.3-17.8-18.5C94.6,116.3,94.4,116.3,94.1,116.3"/>
			</g>
		</g>
	</g>
</g>
</svg>
